<?xml version="1.0" encoding="UTF-8" standalone="no"?>
<!DOCTYPE svg PUBLIC "-//W3C//DTD SVG 1.1//EN" "http://www.w3.org/Graphics/SVG/1.1/DTD/svg11.dtd">
<svg xmlns="http://www.w3.org/2000/svg" version="1.1" viewBox="16 22 117.4 136.2">
<g stroke-width="2.00" fill="none" stroke-linecap="butt">
<path stroke="#8d9e96" vector-effect="non-scaling-stroke" d="
  M 40.04 25.18
  A 21.01 21.01 0.0 0 0 19.03 46.19
  L 19.03 134.10
  A 21.01 21.01 0.0 0 0 40.04 155.11
  L 109.39 155.11
  A 21.01 21.01 0.0 0 0 130.40 134.10
  L 130.40 46.19
  A 21.01 21.01 0.0 0 0 109.39 25.18
  L 40.04 25.18"
/>
<path stroke="#8d9e96" vector-effect="non-scaling-stroke" d="
  M 96.53 61.70
  L 96.67 55.13
  A 1.18 1.18 0.0 0 1 97.87 53.97
  L 101.86 54.05
  A 0.93 0.92 0.9 0 0 102.81 53.14
  L 102.89 49.41
  A 1.23 1.21 -86.1 0 0 101.82 48.17
  Q 97.43 47.62 93.39 48.58
  A 1.51 1.51 0.0 0 0 92.23 50.02
  L 91.57 82.34
  A 0.76 0.76 0.0 0 0 92.42 83.11
  L 101.06 82.02
  A 1.66 1.65 86.5 0 0 102.51 80.37
  L 102.51 76.94
  A 1.17 1.16 -10.6 0 0 100.92 75.86
  L 97.85 77.05
  A 1.00 1.00 0.0 0 1 96.49 76.12
  L 96.49 69.00
  A 1.50 1.50 0.0 0 1 97.80 67.51
  L 100.01 67.24
  A 0.78 0.77 -3.1 0 0 100.68 66.50
  L 100.75 62.70
  A 0.67 0.67 0.0 0 0 100.00 62.02
  L 97.27 62.37
  A 0.67 0.66 87.0 0 1 96.53 61.70"
/>
<path stroke="#8d9e96" vector-effect="non-scaling-stroke" d="
  M 116.12 54.05
  L 116.12 50.36
  A 1.48 1.47 7.4 0 0 115.02 48.94
  Q 110.54 47.77 106.50 48.16
  A 1.98 1.98 0.0 0 0 104.71 50.13
  L 104.71 81.09
  A 0.94 0.94 0.0 0 0 105.76 82.02
  L 114.42 80.92
  A 1.59 1.59 0.0 0 0 115.82 79.34
  L 115.82 75.47
  A 1.20 1.20 0.0 0 0 114.19 74.35
  L 110.68 75.71
  A 1.00 1.00 0.0 0 1 109.32 74.78
  L 109.32 68.66
  A 1.12 1.12 0.0 0 1 110.30 67.55
  L 112.82 67.23
  A 1.25 1.24 -3.7 0 0 113.91 66.00
  L 113.91 62.87
  A 1.20 1.20 0.0 0 0 112.27 61.75
  L 110.54 62.42
  A 0.94 0.94 0.0 0 1 109.26 61.54
  L 109.26 55.43
  A 1.58 1.58 0.0 0 1 111.31 53.92
  L 114.82 55.01
  A 1.00 1.00 0.0 0 0 116.12 54.05"
/>
<path stroke="#8d9e96" vector-effect="non-scaling-stroke" d="
  M 83.83 66.78
  L 81.73 57.31
  A 1.26 1.25 -17.0 0 0 80.05 56.42
  C 79.36 56.69 78.78 57.09 78.69 57.83
  Q 78.57 58.84 76.95 67.26
  A 0.23 0.23 0.0 0 1 76.49 67.25
  L 74.42 50.86
  A 0.95 0.95 0.0 0 0 73.36 50.03
  L 70.82 50.35
  A 1.00 1.00 0.0 0 0 69.97 51.58
  Q 71.18 56.73 71.38 59.07
  Q 72.61 72.98 73.53 81.32
  C 73.70 82.79 73.36 84.87 73.63 86.09
  A 0.76 0.75 -2.2 0 0 74.27 86.68
  Q 77.54 87.12 78.02 84.57
  Q 79.16 78.40 79.92 72.97
  A 0.63 0.62 -44.8 0 1 81.16 72.97
  L 82.55 84.05
  A 0.90 0.89 89.2 0 0 83.35 84.83
  Q 85.02 84.99 86.77 84.03
  A 0.82 0.82 0.0 0 0 87.20 83.38
  L 90.31 48.73
  A 0.65 0.65 0.0 0 0 89.58 48.02
  L 86.34 48.43
  A 0.70 0.69 89.0 0 0 85.74 49.06
  L 84.15 66.76
  A 0.16 0.16 0.0 0 1 83.83 66.78"
/>
<path stroke="#8d9e96" vector-effect="non-scaling-stroke" d="
  M 56.66 70.02
  C 56.75 74.84 57.45 88.73 63.96 88.61
  C 70.48 88.49 70.66 74.58 70.57 69.76
  C 70.48 64.94 69.78 51.05 63.26 51.17
  C 56.75 51.29 56.57 65.20 56.66 70.02"
/>
<path stroke="#8d9e96" vector-effect="non-scaling-stroke" d="
  M 50.62 67.62
  L 50.72 60.59
  A 1.60 1.59 86.9 0 1 52.11 59.03
  L 55.03 58.66
  A 1.35 1.33 89.2 0 0 56.19 57.45
  L 56.53 53.67
  A 0.95 0.94 89.0 0 0 55.47 52.64
  L 48.47 53.52
  A 2.28 2.28 0.0 0 0 46.48 55.72
  Q 46.07 71.40 46.56 87.50
  Q 46.65 90.57 47.38 91.37
  A 1.35 1.34 60.1 0 0 48.78 91.75
  L 56.15 89.42
  A 1.25 1.25 0.0 0 0 57.02 88.07
  L 56.56 84.42
  A 0.88 0.88 0.0 0 0 55.37 83.71
  L 52.48 84.83
  A 1.08 1.08 0.0 0 1 51.01 83.82
  L 51.01 75.10
  A 1.35 1.34 79.0 0 1 51.85 73.85
  Q 52.38 73.63 53.49 73.39
  A 1.21 1.21 0.0 0 0 54.44 72.21
  L 54.44 68.45
  A 0.67 0.67 0.0 0 0 53.44 67.86
  Q 51.21 69.10 50.71 68.02
  A 0.94 0.93 32.4 0 1 50.62 67.62"
/>
<path stroke="#8d9e96" vector-effect="non-scaling-stroke" d="
  M 35.64 68.78
  L 35.75 55.00
  A 1.00 1.00 0.0 0 0 34.38 54.06
  L 31.80 55.06
  A 1.48 1.47 79.7 0 0 30.86 56.42
  Q 30.77 72.61 31.17 91.27
  C 31.22 93.48 30.84 95.22 30.60 96.90
  A 1.49 1.49 0.0 0 0 32.61 98.50
  L 34.98 97.58
  A 2.42 2.41 -14.1 0 0 36.51 95.02
  Q 35.97 90.72 35.84 81.80
  A 0.46 0.42 12.0 0 1 36.48 81.43
  C 37.10 81.67 39.37 89.02 41.25 94.61
  A 1.09 1.08 -19.9 0 0 42.67 95.27
  L 45.99 93.99
  A 0.79 0.79 0.0 0 0 46.44 92.96
  L 39.91 76.07
  A 4.61 4.58 43.1 0 1 39.80 73.08
  L 45.71 53.98
  A 0.87 0.87 0.0 0 0 44.77 52.87
  L 41.97 53.22
  A 1.94 1.93 1.6 0 0 40.31 54.78
  Q 39.34 59.95 36.70 68.46
  Q 36.23 69.96 35.70 69.00
  A 0.44 0.41 -61.8 0 1 35.64 68.78"
/>
<path stroke="#8d9e96" vector-effect="non-scaling-stroke" d="
  M 106.27 106.19
  Q 110.75 101.15 109.69 93.97
  C 108.40 85.11 99.38 86.12 93.58 89.10
  A 1.95 1.94 -18.8 0 0 92.55 91.18
  Q 93.47 96.42 93.53 102.00
  Q 93.68 115.24 93.52 124.75
  Q 93.46 128.06 92.51 131.97
  A 1.63 1.63 0.0 0 0 93.99 133.98
  C 97.26 134.17 103.54 134.27 106.28 132.51
  C 112.63 128.42 113.08 119.35 111.26 112.71
  Q 110.29 109.17 106.42 107.08
  A 0.57 0.57 0.0 0 1 106.27 106.19"
/>
<path stroke="#8d9e96" vector-effect="non-scaling-stroke" d="
  M 76.77 92.45
  L 73.93 93.55
  A 2.25 2.25 0.0 0 0 72.49 95.62
  Q 72.35 109.00 73.21 121.44
  C 73.51 125.79 75.08 132.86 80.13 133.85
  C 90.95 135.96 90.61 116.94 90.48 110.50
  Q 90.28 101.10 89.90 91.21
  A 1.94 1.93 -11.6 0 0 87.26 89.48
  L 85.21 90.27
  A 2.83 2.82 -13.9 0 0 83.42 93.24
  Q 84.83 105.42 84.54 120.75
  Q 84.49 123.30 83.35 125.40
  A 2.06 1.87 -61.8 0 1 80.74 126.33
  C 78.75 125.27 78.28 120.68 78.16 118.11
  Q 77.61 106.00 78.49 93.72
  A 1.27 1.26 -8.4 0 0 76.77 92.45"
/>
<path stroke="#8d9e96" vector-effect="non-scaling-stroke" d="
  M 70.62 125.20
  Q 68.86 126.67 67.15 127.18
  A 1.71 1.70 79.5 0 1 64.96 125.67
  Q 63.86 110.57 65.54 96.09
  A 1.57 1.57 0.0 0 0 63.41 94.44
  L 60.40 95.60
  A 2.06 2.05 -10.7 0 0 59.09 97.51
  L 59.09 133.76
  A 1.10 1.09 -2.0 0 0 60.26 134.85
  L 70.93 134.10
  A 1.74 1.74 0.0 0 0 72.53 132.14
  L 71.71 125.63
  A 0.67 0.67 0.0 0 0 70.62 125.20"
/>
<path stroke="#8d9e96" vector-effect="non-scaling-stroke" d="
  M 55.44 122.10
  L 51.92 122.28
  A 0.78 0.76 -89.6 0 0 51.19 123.01
  C 51.04 124.04 51.24 125.78 50.50 126.71
  C 47.97 129.90 44.51 127.13 43.72 124.24
  Q 42.19 118.61 43.39 112.45
  C 44.04 109.10 44.80 103.45 49.58 103.82
  Q 51.31 103.95 50.76 107.39
  A 1.53 1.53 0.0 0 0 52.38 109.16
  L 53.71 109.06
  A 2.67 2.66 -0.0 0 0 56.19 106.59
  Q 56.55 101.41 55.14 99.42
  C 50.71 93.17 41.76 98.92 39.51 104.22
  Q 34.40 116.30 37.96 128.26
  C 40.15 135.59 50.43 138.21 54.95 131.43
  Q 56.91 128.50 56.29 122.82
  A 0.81 0.81 0.0 0 0 55.44 122.10"
/>
<path stroke="#8d9e96" vector-effect="non-scaling-stroke" d="
  M 63.2928 57.0943
  A 12.50 2.81 -91.5 0 0 60.8110 69.6636
  A 12.50 2.81 -91.5 0 0 63.9472 82.0857
  A 12.50 2.81 -91.5 0 0 66.4290 69.5164
  A 12.50 2.81 -91.5 0 0 63.2928 57.0943"
/>
<path stroke="#8d9e96" vector-effect="non-scaling-stroke" d="
  M 99.90 105.09
  Q 104.26 102.26 104.25 96.70
  A 3.58 3.58 0.0 0 0 101.86 93.34
  L 101.58 93.24
  A 1.84 1.84 0.0 0 0 99.06 94.95
  L 99.06 104.63
  A 0.55 0.54 73.5 0 0 99.90 105.09"
/>
<path stroke="#8d9e96" vector-effect="non-scaling-stroke" d="
  M 99.50 111.84
  L 99.62 126.36
  A 0.46 0.46 0.0 0 0 100.09 126.81
  L 100.21 126.81
  A 5.89 5.40 89.5 0 0 105.56 120.87
  L 105.52 117.21
  A 5.89 5.40 89.5 0 0 100.07 111.37
  L 99.95 111.37
  A 0.46 0.46 0.0 0 0 99.50 111.84"
/>
</g>

<path fill="#1e4337" d="
  M 40.04 25.18
  L 109.39 25.18
  A 21.01 21.01 0.0 0 1 130.40 46.19
  L 130.40 134.10
  A 21.01 21.01 0.0 0 1 109.39 155.11
  L 40.04 155.11
  A 21.01 21.01 0.0 0 1 19.03 134.10
  L 19.03 46.19
  A 21.01 21.01 0.0 0 1 40.04 25.18
  Z
  M 96.53 61.70
  L 96.67 55.13
  A 1.18 1.18 0.0 0 1 97.87 53.97
  L 101.86 54.05
  A 0.93 0.92 0.9 0 0 102.81 53.14
  L 102.89 49.41
  A 1.23 1.21 -86.1 0 0 101.82 48.17
  Q 97.43 47.62 93.39 48.58
  A 1.51 1.51 0.0 0 0 92.23 50.02
  L 91.57 82.34
  A 0.76 0.76 0.0 0 0 92.42 83.11
  L 101.06 82.02
  A 1.66 1.65 86.5 0 0 102.51 80.37
  L 102.51 76.94
  A 1.17 1.16 -10.6 0 0 100.92 75.86
  L 97.85 77.05
  A 1.00 1.00 0.0 0 1 96.49 76.12
  L 96.49 69.00
  A 1.50 1.50 0.0 0 1 97.80 67.51
  L 100.01 67.24
  A 0.78 0.77 -3.1 0 0 100.68 66.50
  L 100.75 62.70
  A 0.67 0.67 0.0 0 0 100.00 62.02
  L 97.27 62.37
  A 0.67 0.66 87.0 0 1 96.53 61.70
  Z
  M 116.12 54.05
  L 116.12 50.36
  A 1.48 1.47 7.4 0 0 115.02 48.94
  Q 110.54 47.77 106.50 48.16
  A 1.98 1.98 0.0 0 0 104.71 50.13
  L 104.71 81.09
  A 0.94 0.94 0.0 0 0 105.76 82.02
  L 114.42 80.92
  A 1.59 1.59 0.0 0 0 115.82 79.34
  L 115.82 75.47
  A 1.20 1.20 0.0 0 0 114.19 74.35
  L 110.68 75.71
  A 1.00 1.00 0.0 0 1 109.32 74.78
  L 109.32 68.66
  A 1.12 1.12 0.0 0 1 110.30 67.55
  L 112.82 67.23
  A 1.25 1.24 -3.7 0 0 113.91 66.00
  L 113.91 62.87
  A 1.20 1.20 0.0 0 0 112.27 61.75
  L 110.54 62.42
  A 0.94 0.94 0.0 0 1 109.26 61.54
  L 109.26 55.43
  A 1.58 1.58 0.0 0 1 111.31 53.92
  L 114.82 55.01
  A 1.00 1.00 0.0 0 0 116.12 54.05
  Z
  M 83.83 66.78
  L 81.73 57.31
  A 1.26 1.25 -17.0 0 0 80.05 56.42
  C 79.36 56.69 78.78 57.09 78.69 57.83
  Q 78.57 58.84 76.95 67.26
  A 0.23 0.23 0.0 0 1 76.49 67.25
  L 74.42 50.86
  A 0.95 0.95 0.0 0 0 73.36 50.03
  L 70.82 50.35
  A 1.00 1.00 0.0 0 0 69.97 51.58
  Q 71.18 56.73 71.38 59.07
  Q 72.61 72.98 73.53 81.32
  C 73.70 82.79 73.36 84.87 73.63 86.09
  A 0.76 0.75 -2.2 0 0 74.27 86.68
  Q 77.54 87.12 78.02 84.57
  Q 79.16 78.40 79.92 72.97
  A 0.63 0.62 -44.8 0 1 81.16 72.97
  L 82.55 84.05
  A 0.90 0.89 89.2 0 0 83.35 84.83
  Q 85.02 84.99 86.77 84.03
  A 0.82 0.82 0.0 0 0 87.20 83.38
  L 90.31 48.73
  A 0.65 0.65 0.0 0 0 89.58 48.02
  L 86.34 48.43
  A 0.70 0.69 89.0 0 0 85.74 49.06
  L 84.15 66.76
  A 0.16 0.16 0.0 0 1 83.83 66.78
  Z
  M 56.66 70.02
  C 56.75 74.84 57.45 88.73 63.96 88.61
  C 70.48 88.49 70.66 74.58 70.57 69.76
  C 70.48 64.94 69.78 51.05 63.26 51.17
  C 56.75 51.29 56.57 65.20 56.66 70.02
  Z
  M 50.62 67.62
  L 50.72 60.59
  A 1.60 1.59 86.9 0 1 52.11 59.03
  L 55.03 58.66
  A 1.35 1.33 89.2 0 0 56.19 57.45
  L 56.53 53.67
  A 0.95 0.94 89.0 0 0 55.47 52.64
  L 48.47 53.52
  A 2.28 2.28 0.0 0 0 46.48 55.72
  Q 46.07 71.40 46.56 87.50
  Q 46.65 90.57 47.38 91.37
  A 1.35 1.34 60.1 0 0 48.78 91.75
  L 56.15 89.42
  A 1.25 1.25 0.0 0 0 57.02 88.07
  L 56.56 84.42
  A 0.88 0.88 0.0 0 0 55.37 83.71
  L 52.48 84.83
  A 1.08 1.08 0.0 0 1 51.01 83.82
  L 51.01 75.10
  A 1.35 1.34 79.0 0 1 51.85 73.85
  Q 52.38 73.63 53.49 73.39
  A 1.21 1.21 0.0 0 0 54.44 72.21
  L 54.44 68.45
  A 0.67 0.67 0.0 0 0 53.44 67.86
  Q 51.21 69.10 50.71 68.02
  A 0.94 0.93 32.4 0 1 50.62 67.62
  Z
  M 35.64 68.78
  L 35.75 55.00
  A 1.00 1.00 0.0 0 0 34.38 54.06
  L 31.80 55.06
  A 1.48 1.47 79.7 0 0 30.86 56.42
  Q 30.77 72.61 31.17 91.27
  C 31.22 93.48 30.84 95.22 30.60 96.90
  A 1.49 1.49 0.0 0 0 32.61 98.50
  L 34.98 97.58
  A 2.42 2.41 -14.1 0 0 36.51 95.02
  Q 35.97 90.72 35.84 81.80
  A 0.46 0.42 12.0 0 1 36.48 81.43
  C 37.10 81.67 39.37 89.02 41.25 94.61
  A 1.09 1.08 -19.9 0 0 42.67 95.27
  L 45.99 93.99
  A 0.79 0.79 0.0 0 0 46.44 92.96
  L 39.91 76.07
  A 4.61 4.58 43.1 0 1 39.80 73.08
  L 45.71 53.98
  A 0.87 0.87 0.0 0 0 44.77 52.87
  L 41.97 53.22
  A 1.94 1.93 1.6 0 0 40.31 54.78
  Q 39.34 59.95 36.70 68.46
  Q 36.23 69.96 35.70 69.00
  A 0.44 0.41 -61.8 0 1 35.64 68.78
  Z
  M 106.27 106.19
  Q 110.75 101.15 109.69 93.97
  C 108.40 85.11 99.38 86.12 93.58 89.10
  A 1.95 1.94 -18.8 0 0 92.55 91.18
  Q 93.47 96.42 93.53 102.00
  Q 93.68 115.24 93.52 124.75
  Q 93.46 128.06 92.51 131.97
  A 1.63 1.63 0.0 0 0 93.99 133.98
  C 97.26 134.17 103.54 134.27 106.28 132.51
  C 112.63 128.42 113.08 119.35 111.26 112.71
  Q 110.29 109.17 106.42 107.08
  A 0.57 0.57 0.0 0 1 106.27 106.19
  Z
  M 76.77 92.45
  L 73.93 93.55
  A 2.25 2.25 0.0 0 0 72.49 95.62
  Q 72.35 109.00 73.21 121.44
  C 73.51 125.79 75.08 132.86 80.13 133.85
  C 90.95 135.96 90.61 116.94 90.48 110.50
  Q 90.28 101.10 89.90 91.21
  A 1.94 1.93 -11.6 0 0 87.26 89.48
  L 85.21 90.27
  A 2.83 2.82 -13.9 0 0 83.42 93.24
  Q 84.83 105.42 84.54 120.75
  Q 84.49 123.30 83.35 125.40
  A 2.06 1.87 -61.8 0 1 80.74 126.33
  C 78.75 125.27 78.28 120.68 78.16 118.11
  Q 77.61 106.00 78.49 93.72
  A 1.27 1.26 -8.4 0 0 76.77 92.45
  Z
  M 70.62 125.20
  Q 68.86 126.67 67.15 127.18
  A 1.71 1.70 79.5 0 1 64.96 125.67
  Q 63.86 110.57 65.54 96.09
  A 1.57 1.57 0.0 0 0 63.41 94.44
  L 60.40 95.60
  A 2.06 2.05 -10.7 0 0 59.09 97.51
  L 59.09 133.76
  A 1.10 1.09 -2.0 0 0 60.26 134.85
  L 70.93 134.10
  A 1.74 1.74 0.0 0 0 72.53 132.14
  L 71.71 125.63
  A 0.67 0.67 0.0 0 0 70.62 125.20
  Z
  M 55.44 122.10
  L 51.92 122.28
  A 0.78 0.76 -89.6 0 0 51.19 123.01
  C 51.04 124.04 51.24 125.78 50.50 126.71
  C 47.97 129.90 44.51 127.13 43.72 124.24
  Q 42.19 118.61 43.39 112.45
  C 44.04 109.10 44.80 103.45 49.58 103.82
  Q 51.31 103.95 50.76 107.39
  A 1.53 1.53 0.0 0 0 52.38 109.16
  L 53.71 109.06
  A 2.67 2.66 -0.0 0 0 56.19 106.59
  Q 56.55 101.41 55.14 99.42
  C 50.71 93.17 41.76 98.92 39.51 104.22
  Q 34.40 116.30 37.96 128.26
  C 40.15 135.59 50.43 138.21 54.95 131.43
  Q 56.91 128.50 56.29 122.82
  A 0.81 0.81 0.0 0 0 55.44 122.10
  Z"
/>
<path fill="#fcf9f5" d="
  M 97.27 62.37
  L 100.00 62.02
  A 0.67 0.67 0.0 0 1 100.75 62.70
  L 100.68 66.50
  A 0.78 0.77 -3.1 0 1 100.01 67.24
  L 97.80 67.51
  A 1.50 1.50 0.0 0 0 96.49 69.00
  L 96.49 76.12
  A 1.00 1.00 0.0 0 0 97.85 77.05
  L 100.92 75.86
  A 1.17 1.16 -10.6 0 1 102.51 76.94
  L 102.51 80.37
  A 1.66 1.65 86.5 0 1 101.06 82.02
  L 92.42 83.11
  A 0.76 0.76 0.0 0 1 91.57 82.34
  L 92.23 50.02
  A 1.51 1.51 0.0 0 1 93.39 48.58
  Q 97.43 47.62 101.82 48.17
  A 1.23 1.21 -86.1 0 1 102.89 49.41
  L 102.81 53.14
  A 0.93 0.92 0.9 0 1 101.86 54.05
  L 97.87 53.97
  A 1.18 1.18 0.0 0 0 96.67 55.13
  L 96.53 61.70
  A 0.67 0.66 87.0 0 0 97.27 62.37
  Z"
/>
<path fill="#fcf9f5" d="
  M 114.82 55.01
  L 111.31 53.92
  A 1.58 1.58 0.0 0 0 109.26 55.43
  L 109.26 61.54
  A 0.94 0.94 0.0 0 0 110.54 62.42
  L 112.27 61.75
  A 1.20 1.20 0.0 0 1 113.91 62.87
  L 113.91 66.00
  A 1.25 1.24 -3.7 0 1 112.82 67.23
  L 110.30 67.55
  A 1.12 1.12 0.0 0 0 109.32 68.66
  L 109.32 74.78
  A 1.00 1.00 0.0 0 0 110.68 75.71
  L 114.19 74.35
  A 1.20 1.20 0.0 0 1 115.82 75.47
  L 115.82 79.34
  A 1.59 1.59 0.0 0 1 114.42 80.92
  L 105.76 82.02
  A 0.94 0.94 0.0 0 1 104.71 81.09
  L 104.71 50.13
  A 1.98 1.98 0.0 0 1 106.50 48.16
  Q 110.54 47.77 115.02 48.94
  A 1.48 1.47 7.4 0 1 116.12 50.36
  L 116.12 54.05
  A 1.00 1.00 0.0 0 1 114.82 55.01
  Z"
/>
<path fill="#fcf9f5" d="
  M 83.83 66.78
  A 0.16 0.16 0.0 0 0 84.15 66.76
  L 85.74 49.06
  A 0.70 0.69 89.0 0 1 86.34 48.43
  L 89.58 48.02
  A 0.65 0.65 0.0 0 1 90.31 48.73
  L 87.20 83.38
  A 0.82 0.82 0.0 0 1 86.77 84.03
  Q 85.02 84.99 83.35 84.83
  A 0.90 0.89 89.2 0 1 82.55 84.05
  L 81.16 72.97
  A 0.63 0.62 -44.8 0 0 79.92 72.97
  Q 79.16 78.40 78.02 84.57
  Q 77.54 87.12 74.27 86.68
  A 0.76 0.75 -2.2 0 1 73.63 86.09
  C 73.36 84.87 73.70 82.79 73.53 81.32
  Q 72.61 72.98 71.38 59.07
  Q 71.18 56.73 69.97 51.58
  A 1.00 1.00 0.0 0 1 70.82 50.35
  L 73.36 50.03
  A 0.95 0.95 0.0 0 1 74.42 50.86
  L 76.49 67.25
  A 0.23 0.23 0.0 0 0 76.95 67.26
  Q 78.57 58.84 78.69 57.83
  C 78.78 57.09 79.36 56.69 80.05 56.42
  A 1.26 1.25 -17.0 0 1 81.73 57.31
  L 83.83 66.78
  Z"
/>
<path fill="#fcf9f5" d="
  M 63.26 51.17
  C 69.78 51.05 70.48 64.94 70.57 69.76
  C 70.66 74.58 70.48 88.49 63.96 88.61
  C 57.45 88.73 56.75 74.84 56.66 70.02
  C 56.57 65.20 56.75 51.29 63.26 51.17
  Z
  M 63.2928 57.0943
  A 12.50 2.81 -91.5 0 0 60.8110 69.6636
  A 12.50 2.81 -91.5 0 0 63.9472 82.0857
  A 12.50 2.81 -91.5 0 0 66.4290 69.5164
  A 12.50 2.81 -91.5 0 0 63.2928 57.0943
  Z"
/>
<path fill="#fcf9f5" d="
  M 50.71 68.02
  Q 51.21 69.10 53.44 67.86
  A 0.67 0.67 0.0 0 1 54.44 68.45
  L 54.44 72.21
  A 1.21 1.21 0.0 0 1 53.49 73.39
  Q 52.38 73.63 51.85 73.85
  A 1.35 1.34 79.0 0 0 51.01 75.10
  L 51.01 83.82
  A 1.08 1.08 0.0 0 0 52.48 84.83
  L 55.37 83.71
  A 0.88 0.88 0.0 0 1 56.56 84.42
  L 57.02 88.07
  A 1.25 1.25 0.0 0 1 56.15 89.42
  L 48.78 91.75
  A 1.35 1.34 60.1 0 1 47.38 91.37
  Q 46.65 90.57 46.56 87.50
  Q 46.07 71.40 46.48 55.72
  A 2.28 2.28 0.0 0 1 48.47 53.52
  L 55.47 52.64
  A 0.95 0.94 89.0 0 1 56.53 53.67
  L 56.19 57.45
  A 1.35 1.33 89.2 0 1 55.03 58.66
  L 52.11 59.03
  A 1.60 1.59 86.9 0 0 50.72 60.59
  L 50.62 67.62
  A 0.94 0.93 32.4 0 0 50.71 68.02
  Z"
/>
<path fill="#fcf9f5" d="
  M 35.64 68.78
  A 0.44 0.41 -61.8 0 0 35.70 69.00
  Q 36.23 69.96 36.70 68.46
  Q 39.34 59.95 40.31 54.78
  A 1.94 1.93 1.6 0 1 41.97 53.22
  L 44.77 52.87
  A 0.87 0.87 0.0 0 1 45.71 53.98
  L 39.80 73.08
  A 4.61 4.58 43.1 0 0 39.91 76.07
  L 46.44 92.96
  A 0.79 0.79 0.0 0 1 45.99 93.99
  L 42.67 95.27
  A 1.09 1.08 -19.9 0 1 41.25 94.61
  C 39.37 89.02 37.10 81.67 36.48 81.43
  A 0.46 0.42 12.0 0 0 35.84 81.80
  Q 35.97 90.72 36.51 95.02
  A 2.42 2.41 -14.1 0 1 34.98 97.58
  L 32.61 98.50
  A 1.49 1.49 0.0 0 1 30.60 96.90
  C 30.84 95.22 31.22 93.48 31.17 91.27
  Q 30.77 72.61 30.86 56.42
  A 1.48 1.47 79.7 0 1 31.80 55.06
  L 34.38 54.06
  A 1.00 1.00 0.0 0 1 35.75 55.00
  L 35.64 68.78
  Z"
/>
<ellipse fill="#1e4337" cx="0.00" cy="0.00" transform="translate(63.62,69.59) rotate(-91.5)" rx="12.50" ry="2.81"/>
<path fill="#fcf9f5" d="
  M 106.27 106.19
  A 0.57 0.57 0.0 0 0 106.42 107.08
  Q 110.29 109.17 111.26 112.71
  C 113.08 119.35 112.63 128.42 106.28 132.51
  C 103.54 134.27 97.26 134.17 93.99 133.98
  A 1.63 1.63 0.0 0 1 92.51 131.97
  Q 93.46 128.06 93.52 124.75
  Q 93.68 115.24 93.53 102.00
  Q 93.47 96.42 92.55 91.18
  A 1.95 1.94 -18.8 0 1 93.58 89.10
  C 99.38 86.12 108.40 85.11 109.69 93.97
  Q 110.75 101.15 106.27 106.19
  Z
  M 99.90 105.09
  Q 104.26 102.26 104.25 96.70
  A 3.58 3.58 0.0 0 0 101.86 93.34
  L 101.58 93.24
  A 1.84 1.84 0.0 0 0 99.06 94.95
  L 99.06 104.63
  A 0.55 0.54 73.5 0 0 99.90 105.09
  Z
  M 99.50 111.84
  L 99.62 126.36
  A 0.46 0.46 0.0 0 0 100.09 126.81
  L 100.21 126.81
  A 5.89 5.40 89.5 0 0 105.56 120.87
  L 105.52 117.21
  A 5.89 5.40 89.5 0 0 100.07 111.37
  L 99.95 111.37
  A 0.46 0.46 0.0 0 0 99.50 111.84
  Z"
/>
<path fill="#fcf9f5" d="
  M 76.77 92.45
  A 1.27 1.26 -8.4 0 1 78.49 93.72
  Q 77.61 106.00 78.16 118.11
  C 78.28 120.68 78.75 125.27 80.74 126.33
  A 2.06 1.87 -61.8 0 0 83.35 125.40
  Q 84.49 123.30 84.54 120.75
  Q 84.83 105.42 83.42 93.24
  A 2.83 2.82 -13.9 0 1 85.21 90.27
  L 87.26 89.48
  A 1.94 1.93 -11.6 0 1 89.90 91.21
  Q 90.28 101.10 90.48 110.50
  C 90.61 116.94 90.95 135.96 80.13 133.85
  C 75.08 132.86 73.51 125.79 73.21 121.44
  Q 72.35 109.00 72.49 95.62
  A 2.25 2.25 0.0 0 1 73.93 93.55
  L 76.77 92.45
  Z"
/>
<path fill="#1e4337" d="
  M 99.90 105.09
  A 0.55 0.54 73.5 0 1 99.06 104.63
  L 99.06 94.95
  A 1.84 1.84 0.0 0 1 101.58 93.24
  L 101.86 93.34
  A 3.58 3.58 0.0 0 1 104.25 96.70
  Q 104.26 102.26 99.90 105.09
  Z"
/>
<path fill="#fcf9f5" d="
  M 70.62 125.20
  A 0.67 0.67 0.0 0 1 71.71 125.63
  L 72.53 132.14
  A 1.74 1.74 0.0 0 1 70.93 134.10
  L 60.26 134.85
  A 1.10 1.09 -2.0 0 1 59.09 133.76
  L 59.09 97.51
  A 2.06 2.05 -10.7 0 1 60.40 95.60
  L 63.41 94.44
  A 1.57 1.57 0.0 0 1 65.54 96.09
  Q 63.86 110.57 64.96 125.67
  A 1.71 1.70 79.5 0 0 67.15 127.18
  Q 68.86 126.67 70.62 125.20
  Z"
/>
<path fill="#fcf9f5" d="
  M 56.29 122.82
  Q 56.91 128.50 54.95 131.43
  C 50.43 138.21 40.15 135.59 37.96 128.26
  Q 34.40 116.30 39.51 104.22
  C 41.76 98.92 50.71 93.17 55.14 99.42
  Q 56.55 101.41 56.19 106.59
  A 2.67 2.66 -0.0 0 1 53.71 109.06
  L 52.38 109.16
  A 1.53 1.53 0.0 0 1 50.76 107.39
  Q 51.31 103.95 49.58 103.82
  C 44.80 103.45 44.04 109.10 43.39 112.45
  Q 42.19 118.61 43.72 124.24
  C 44.51 127.13 47.97 129.90 50.50 126.71
  C 51.24 125.78 51.04 124.04 51.19 123.01
  A 0.78 0.76 -89.6 0 1 51.92 122.28
  L 55.44 122.10
  A 0.81 0.81 0.0 0 1 56.29 122.82
  Z"
/>
<path fill="#1e4337" d="
  M 99.50 111.84
  A 0.46 0.46 0.0 0 1 99.95 111.37
  L 100.07 111.37
  A 5.89 5.40 89.5 0 1 105.52 117.21
  L 105.56 120.87
  A 5.89 5.40 89.5 0 1 100.21 126.81
  L 100.09 126.81
  A 0.46 0.46 0.0 0 1 99.62 126.36
  L 99.50 111.84
  Z"
/>
</svg>
