<?xml version="1.0" encoding="UTF-8" standalone="no"?>
<!DOCTYPE svg PUBLIC "-//W3C//DTD SVG 1.1//EN" "http://www.w3.org/Graphics/SVG/1.1/DTD/svg11.dtd">
<svg xmlns="http://www.w3.org/2000/svg" version="1.1" viewBox="0.00 0.00 329.00 140.00">
<g stroke-width="2.00" fill="none" stroke-linecap="butt">
<path stroke="#efe5d5" vector-effect="non-scaling-stroke" d="
  M 28.50 95.87
  Q 20.04 90.47 16.78 79.62
  Q 13.83 69.83 13.28 68.19
  Q 12.25 65.06 12.02 55.43
  C 12.01 54.94 11.74 54.20 11.64 53.77
  A 0.14 0.14 0.0 0 0 11.37 53.77
  Q 9.86 59.30 10.84 67.45
  Q 13.00 85.32 23.25 98.74"
/>
<path stroke="#d2cabc" vector-effect="non-scaling-stroke" d="
  M 23.25 98.74
  Q 29.18 106.07 32.74 108.51
  Q 41.36 114.38 44.18 115.76
  Q 52.97 120.02 61.15 121.05
  C 65.98 121.65 69.12 122.26 72.64 122.09
  Q 100.28 120.68 117.46 100.95
  Q 124.64 92.69 128.67 80.28"
/>
<path stroke="#e4dac9" vector-effect="non-scaling-stroke" d="
  M 128.67 80.28
  Q 134.65 61.70 127.88 43.06
  Q 124.03 32.48 116.89 24.25
  A 0.17 0.16 -41.5 0 0 116.65 24.24
  L 116.40 24.50
  A 0.26 0.25 -42.5 0 0 116.38 24.85
  Q 128.93 40.08 129.64 59.62"
/>
<path stroke="#efe5d5" vector-effect="non-scaling-stroke" d="
  M 129.64 59.62
  Q 127.56 55.53 126.76 50.93
  C 126.30 48.19 125.62 46.36 124.77 44.06
  A 0.30 0.30 0.0 0 0 124.41 43.87
  L 124.36 43.88
  A 0.34 0.34 0.0 0 0 124.12 44.29
  Q 126.73 54.62 126.91 60.71
  Q 127.18 70.02 122.24 82.96
  C 116.88 97.01 103.82 108.64 89.88 113.55
  C 70.30 120.44 51.32 116.85 35.31 104.10
  Q 31.64 101.18 30.75 99.38
  Q 30.40 98.68 29.95 98.12
  Q 29.22 97.20 30.06 97.97
  Q 30.38 98.27 30.73 98.27"
/>
<path stroke="#7e8782" vector-effect="non-scaling-stroke" d="
  M 30.73 98.27
  C 55.03 123.60 97.27 121.22 116.81 90.90
  C 131.06 68.79 126.94 39.49 107.21 22.33
  C 69.28 -10.66 9.46 20.19 17.25 70.75
  Q 19.30 84.08 28.50 95.87"
/>
<path stroke="#7b827a" vector-effect="non-scaling-stroke" d="
  M 30.73 98.27
  L 28.50 95.87"
/>
<path stroke="#cfc5b4" vector-effect="non-scaling-stroke" d="
  M 127.41 78.91
  Q 121.87 97.07 107.63 108.04
  C 97.81 115.59 84.14 120.30 71.76 120.32
  Q 47.25 120.36 28.60 103.14
  Q 26.42 101.12 24.11 98.07
  A 0.42 0.42 0.0 0 0 23.36 98.23
  L 23.25 98.74"
/>
<path stroke="#c4baa8" vector-effect="non-scaling-stroke" d="
  M 128.67 80.28
  L 127.41 78.91"
/>
<path stroke="#e1d5c1" vector-effect="non-scaling-stroke" d="
  M 127.41 78.91
  Q 128.04 76.13 128.72 73.26
  Q 130.39 66.24 129.64 59.62"
/>
<path stroke="#e4dac9" vector-effect="non-scaling-stroke" d="
  M 158.79 23.97
  Q 158.52 26.07 158.51 28.25
  Q 158.43 66.81 158.64 105.37
  Q 158.66 108.61 160.98 111.80"
/>
<path stroke="#bbc3bd" vector-effect="non-scaling-stroke" d="
  M 160.98 111.80
  C 165.31 116.42 169.57 115.64 175.58 113.59
  Q 277.81 78.81 288.20 75.25
  Q 288.37 75.19 308.51 68.67
  Q 311.39 67.73 312.89 65.16
  Q 315.16 61.29 312.46 58.05"
/>
<path stroke="#efe5d5" vector-effect="non-scaling-stroke" d="
  M 312.46 58.05
  Q 312.14 56.14 309.36 54.63
  Q 306.99 53.34 301.30 51.71
  Q 259.80 39.82 222.42 28.16
  C 210.73 24.52 192.26 19.45 183.45 17.04
  C 173.84 14.42 161.09 10.43 158.79 23.97"
/>
<path stroke="#b8beb5" vector-effect="non-scaling-stroke" d="
  M 312.46 58.05
  Q 313.03 62.10 311.35 64.50
  Q 310.01 66.40 305.66 67.74
  C 293.67 71.42 282.76 75.67 269.45 79.99
  Q 262.08 82.39 233.55 92.29
  Q 229.45 93.71 176.87 111.84
  C 172.14 113.47 167.39 115.07 163.25 112.40"
/>
<path stroke="#efe5d5" vector-effect="non-scaling-stroke" d="
  M 163.25 112.40
  C 162.02 108.74 160.39 103.64 161.61 99.92
  A 0.89 0.89 0.0 0 1 162.98 99.47
  L 163.26 99.66
  A 0.96 0.95 15.9 0 1 163.68 100.41
  L 164.00 106.51
  A 0.59 0.56 22.0 0 0 164.17 106.89
  L 166.83 109.55
  A 1.09 1.08 -27.5 0 0 167.79 109.85
  Q 174.31 108.66 176.75 107.78
  C 191.47 102.49 207.98 97.13 220.23 92.80
  Q 261.27 78.27 299.36 65.85
  Q 303.84 64.39 307.48 62.18
  A 1.23 1.22 49.5 0 0 307.63 60.20
  L 304.62 57.65
  A 3.23 3.17 73.1 0 0 303.50 57.04
  L 251.86 41.82
  A 0.33 0.33 0.0 0 1 251.62 41.50
  L 251.62 41.21
  A 0.19 0.19 0.0 0 1 251.85 41.03
  Q 266.03 44.50 280.14 48.65
  Q 283.67 49.68 287.76 49.39
  A 0.07 0.07 0.0 0 0 287.77 49.25
  Q 245.29 36.34 201.81 23.43
  Q 184.10 18.18 177.33 16.44
  C 169.96 14.54 161.83 14.05 159.76 23.48"
/>
<path stroke="#e1d5c1" vector-effect="non-scaling-stroke" d="
  M 159.76 23.48
  Q 159.11 23.49 158.79 23.97"
/>
<path stroke="#adb3a9" vector-effect="non-scaling-stroke" d="
  M 161.55 111.03
  Q 161.14 111.08 160.98 111.80"
/>
<path stroke="#bbc3bd" vector-effect="non-scaling-stroke" d="
  M 163.25 112.40
  Q 162.22 111.85 161.55 111.03"
/>
<path stroke="#e4dac9" vector-effect="non-scaling-stroke" d="
  M 161.55 111.03
  Q 159.99 108.37 159.99 106.74
  Q 159.99 98.38 159.99 90.50
  Q 160.00 74.50 159.75 58.50
  C 159.59 47.69 160.01 35.17 159.76 23.48"
/>
<path stroke="#7e8782" vector-effect="non-scaling-stroke" d="
  M 19.6595 61.0848
  A 51.32 50.53 -178.9 0 0 70.0000 112.5907
  A 51.32 50.53 -178.9 0 0 122.2805 63.0552
  A 51.32 50.53 -178.9 0 0 71.9400 11.5493
  A 51.32 50.53 -178.9 0 0 19.6595 61.0848"
/>
<path stroke="#112f2c" vector-effect="non-scaling-stroke" d="
  M 109.18 97.63
  Q 107.42 99.44 107.60 99.61
  Q 107.77 99.78 109.53 97.97
  Q 111.29 96.16 111.12 95.99
  Q 110.94 95.82 109.18 97.63"
/>
<path stroke="#859287" vector-effect="non-scaling-stroke" d="
  M 23.54 56.08
  Q 22.71 62.97 23.75 69.96
  A 0.71 0.70 85.4 0 0 24.46 70.57
  L 90.18 70.42"
/>
<path stroke="#e4dac9" vector-effect="non-scaling-stroke" d="
  M 90.18 70.42
  Q 90.91 70.75 90.65 71.79"
/>
<path stroke="#7f948f" vector-effect="non-scaling-stroke" d="
  M 90.65 71.79
  Q 63.76 73.02 53.00 72.47
  Q 38.99 71.75 24.91 71.96
  A 0.56 0.56 0.0 0 0 24.39 72.69
  L 25.64 76.53"
/>
<path stroke="#869d97" vector-effect="non-scaling-stroke" d="
  M 25.64 76.53
  L 27.89 82.01
  A 0.77 0.76 79.4 0 0 28.58 82.49
  L 37.31 82.80
  A 1.17 1.14 -57.1 0 0 37.88 82.67
  Q 39.41 81.93 40.27 81.92
  Q 46.13 81.83 54.00 82.76
  A 0.30 0.29 -41.4 0 1 53.96 83.35
  L 30.14 83.35
  A 1.07 1.07 0.0 0 0 29.21 84.96
  L 30.49 87.18
  A 2.32 2.31 74.9 0 0 32.49 88.33
  L 42.01 88.33
  A 1.09 0.87 29.7 0 0 42.33 88.28
  Q 45.75 87.03 47.01 87.53
  Q 49.33 88.45 49.77 88.54
  A 0.90 0.77 -38.4 0 0 50.06 88.55
  L 54.74 87.74
  A 2.17 2.10 49.4 0 1 55.90 87.85
  Q 58.14 88.69 59.94 88.84
  A 2.29 2.20 35.8 0 0 60.92 88.70
  Q 63.09 87.83 65.25 87.75"
/>
<path stroke="#7f948f" vector-effect="non-scaling-stroke" d="
  M 65.25 87.75
  Q 67.57 88.29 66.14 88.66"
/>
<path stroke="#869d97" vector-effect="non-scaling-stroke" d="
  M 66.14 88.66
  Q 63.52 88.49 60.76 89.33
  A 3.07 3.04 42.3 0 1 59.26 89.39
  Q 54.79 88.47 50.55 89.36
  A 1.55 1.44 41.9 0 1 49.98 89.37
  L 47.29 88.91
  A 0.58 0.21 25.1 0 0 47.18 88.90
  L 32.89 89.21
  A 0.64 0.64 0.0 0 0 32.45 90.31
  L 39.48 97.26"
/>
<path stroke="#7f948f" vector-effect="non-scaling-stroke" d="
  M 39.48 97.26
  Q 41.28 99.41 42.81 100.45
  Q 59.29 111.68 78.51 108.72
  Q 91.33 106.75 100.09 99.51
  Q 106.11 94.54 108.49 91.52
  Q 115.03 83.19 117.73 72.51
  A 0.93 0.88 43.4 0 0 117.70 71.97
  Q 117.58 71.68 117.42 71.54"
/>
<path stroke="#e4dac9" vector-effect="non-scaling-stroke" d="
  M 117.42 71.54
  Q 116.50 70.81 116.85 70.27"
/>
<path stroke="#859287" vector-effect="non-scaling-stroke" d="
  M 116.85 70.27
  Q 117.20 70.34 117.53 70.28
  A 0.79 0.77 -89.3 0 0 118.16 69.65
  Q 119.19 63.72 118.57 58.23"
/>
<path stroke="#9cada8" vector-effect="non-scaling-stroke" d="
  M 118.57 58.23
  L 117.60 52.34"
/>
<path stroke="#bbc3bd" vector-effect="non-scaling-stroke" d="
  M 117.60 52.34
  L 116.48 47.71"
/>
<path stroke="#e4dac9" vector-effect="non-scaling-stroke" d="
  M 116.48 47.71
  Q 116.13 44.48 113.92 40.50
  C 110.84 34.95 107.95 30.37 102.95 26.65
  C 94.40 20.29 84.62 14.83 74.67 14.71
  Q 64.78 14.60 61.51 15.34
  Q 49.73 18.03 40.74 25.71
  Q 39.74 26.57 36.99 28.07
  A 2.37 2.15 0.9 0 0 36.25 28.72
  Q 27.68 40.47 26.67 42.43
  Q 24.20 47.21 23.54 56.08"
/>
<path stroke="#adb3a9" vector-effect="non-scaling-stroke" d="
  M 116.48 47.71
  Q 114.25 46.97 111.96 46.13
  C 107.70 44.57 102.33 40.72 100.04 39.71
  Q 97.65 38.64 96.09 39.40
  Q 91.17 41.76 87.56 45.43
  A 1.19 1.19 0.0 0 1 85.98 45.52
  C 84.15 44.08 82.18 45.53 80.78 46.57
  A 0.94 0.91 36.4 0 1 79.90 46.69
  Q 73.65 44.30 68.65 39.97
  A 3.75 3.74 53.0 0 0 64.63 39.40
  Q 61.54 40.81 58.41 43.67
  Q 55.49 46.34 54.97 46.49
  Q 51.53 47.51 48.65 49.61"
/>
<path stroke="#e1d5c1" vector-effect="non-scaling-stroke" d="
  M 48.65 49.61
  Q 47.23 47.47 45.32 46.21"
/>
<path stroke="#d6b27a" vector-effect="non-scaling-stroke" d="
  M 45.32 46.21
  Q 48.16 44.45 51.03 43.83
  A 2.18 2.16 88.3 0 0 52.73 42.01
  Q 53.41 37.30 50.00 34.57
  C 43.20 29.14 35.61 35.95 39.52 43.42"
/>
<path stroke="#e1d5c1" vector-effect="non-scaling-stroke" d="
  M 39.52 43.42
  L 31.32 47.09
  A 0.32 0.31 36.7 0 0 31.41 47.69
  Q 37.47 48.53 39.74 53.74"
/>
<path stroke="#adb3a9" vector-effect="non-scaling-stroke" d="
  M 39.74 53.74
  Q 38.82 54.37 38.52 54.97"
/>
<path stroke="#778273" vector-effect="non-scaling-stroke" d="
  M 38.52 54.97
  L 31.04 53.93
  A 1.53 1.51 34.4 0 0 30.10 54.10
  Q 27.16 55.70 23.54 56.08"
/>
<path stroke="#778273" vector-effect="non-scaling-stroke" d="
  M 116.85 70.27
  L 90.18 70.42"
/>
<path stroke="#658688" vector-effect="non-scaling-stroke" d="
  M 117.60 52.34
  Q 114.54 52.35 108.28 50.38
  Q 105.80 49.59 102.27 51.59
  A 2.41 2.36 34.1 0 1 100.72 51.87
  Q 96.83 51.26 95.10 52.12
  Q 89.64 54.82 85.18 56.48
  A 3.61 3.50 -55.3 0 1 84.07 56.70
  C 80.21 56.87 79.61 56.37 76.98 54.93
  A 2.80 2.72 58.8 0 0 75.64 54.58
  L 72.04 54.58
  A 3.77 3.67 53.9 0 1 70.81 54.37
  C 67.54 53.20 63.66 52.28 60.29 53.79
  Q 55.05 56.15 49.70 58.31"
/>
<path stroke="#4e6b67" vector-effect="non-scaling-stroke" d="
  M 49.70 58.31
  Q 47.48 57.25 44.44 57.77
  A 2.44 2.40 -34.2 0 1 42.80 57.47
  L 38.52 54.97"
/>
<path stroke="#b8beb5" vector-effect="non-scaling-stroke" d="
  M 39.74 53.74
  C 42.72 51.62 45.59 51.06 48.65 49.61"
/>
<path stroke="#e1bd86" vector-effect="non-scaling-stroke" d="
  M 45.32 46.21
  C 42.91 46.53 41.27 44.71 39.52 43.42"
/>
<path stroke="#2f5552" vector-effect="non-scaling-stroke" d="
  M 118.57 58.23
  L 108.21 59.55
  A 0.33 0.21 -31.7 0 1 108.10 59.55
  L 107.21 59.44
  A 1.82 1.81 -54.3 0 0 106.18 59.61
  C 104.48 60.44 102.66 59.77 101.02 60.89
  Q 100.98 60.92 98.36 61.62
  Q 96.77 62.05 91.84 64.25
  A 4.53 4.51 28.7 0 1 90.63 64.60
  C 86.31 65.18 83.23 66.74 79.48 68.88
  A 5.18 5.15 32.2 0 1 76.58 69.53
  C 71.97 69.20 67.75 65.99 64.46 65.28
  Q 63.00 64.96 59.16 62.94
  Q 57.07 61.85 52.64 60.90
  Q 50.68 60.49 49.70 58.31"
/>
<path stroke="#71847b" vector-effect="non-scaling-stroke" d="
  M 117.42 71.54
  L 90.65 71.79"
/>
<path stroke="#134649" vector-effect="non-scaling-stroke" d="
  M 39.48 97.26
  Q 39.89 96.64 39.84 97.04"
/>
<path stroke="#7f948f" vector-effect="non-scaling-stroke" d="
  M 39.84 97.04
  Q 51.01 95.59 62.36 96.56
  C 64.30 96.73 65.77 95.73 67.17 95.95
  C 70.50 96.46 73.83 95.64 77.14 95.88
  A 0.52 0.52 0.0 0 0 77.69 95.42
  L 77.71 95.26
  A 0.51 0.50 -81.3 0 0 77.31 94.71
  Q 74.68 94.22 72.04 94.69"
/>
<path stroke="#134649" vector-effect="non-scaling-stroke" d="
  M 72.04 94.69
  C 72.12 91.22 68.85 89.78 66.14 88.66"
/>
<path stroke="#134649" vector-effect="non-scaling-stroke" d="
  M 65.25 87.75
  L 71.07 82.80"
/>
<path stroke="#7f948f" vector-effect="non-scaling-stroke" d="
  M 71.07 82.80
  L 85.96 82.91
  A 0.35 0.34 -9.1 0 0 86.29 82.46
  L 86.06 81.75
  A 0.39 0.38 -4.3 0 0 85.73 81.48
  Q 81.48 81.05 77.63 82.64
  A 0.84 0.83 50.5 0 1 76.83 82.56
  Q 74.87 81.25 72.81 81.63"
/>
<path stroke="#134649" vector-effect="non-scaling-stroke" d="
  M 72.81 81.63
  Q 72.72 81.05 72.37 80.64
  A 0.36 0.36 0.0 0 1 72.53 80.06
  L 74.00 79.59
  A 0.75 0.72 -1.1 0 0 74.49 79.10
  Q 74.83 78.05 76.27 77.88
  Q 78.59 77.61 80.96 77.50"
/>
<path stroke="#5e746e" vector-effect="non-scaling-stroke" d="
  M 80.96 77.50
  L 101.89 77.58
  A 0.38 0.38 0.0 0 0 102.07 76.87
  Q 100.79 76.17 99.00 76.25
  C 86.04 76.86 70.59 75.93 59.43 76.44
  Q 57.85 76.51 55.76 76.35
  Q 52.99 76.13 46.96 76.59"
/>
<path stroke="#134649" vector-effect="non-scaling-stroke" d="
  M 46.96 76.59
  Q 46.46 76.49 45.69 76.80"
/>
<path stroke="#5e746e" vector-effect="non-scaling-stroke" d="
  M 45.69 76.80
  Q 40.35 75.74 35.05 76.82"
/>
<path stroke="#134649" vector-effect="non-scaling-stroke" d="
  M 35.05 76.82
  Q 30.50 75.23 25.64 76.53"
/>
<path stroke="#869d97" vector-effect="non-scaling-stroke" d="
  M 72.04 94.69
  Q 65.49 95.58 62.98 95.36
  Q 53.99 94.59 43.06 95.29
  Q 40.71 95.44 39.55 95.77
  A 0.47 0.47 0.0 0 0 39.35 96.56
  L 39.84 97.04"
/>
<path stroke="#667d76" vector-effect="non-scaling-stroke" d="
  M 35.05 76.82
  Q 40.34 78.01 45.69 76.80"
/>
<path stroke="#667d76" vector-effect="non-scaling-stroke" d="
  M 46.96 76.59
  Q 50.71 78.24 54.79 77.31
  Q 57.39 76.72 58.81 76.92
  Q 64.74 77.76 70.68 77.37
  C 73.81 77.17 77.53 77.50 80.96 77.50"
/>
<path stroke="#869d97" vector-effect="non-scaling-stroke" d="
  M 72.81 81.63
  Q 64.48 82.35 57.75 82.22
  Q 57.55 82.21 57.40 82.27
  A 0.30 0.30 0.0 0 0 57.50 82.86
  L 71.07 82.80"
/>
<path stroke="#e1d5c1" vector-effect="non-scaling-stroke" d="
  M 86.53 38.35
  L 85.37 37.19
  A 0.21 0.21 0.0 0 1 85.52 36.83
  L 89.21 36.83
  A 0.61 0.61 0.0 0 0 89.47 35.66
  C 79.18 30.86 68.64 28.49 58.20 34.24
  A 0.80 0.80 0.0 0 0 58.25 35.67
  Q 61.32 37.06 65.47 37.73
  Q 68.59 38.23 82.15 38.90
  Q 82.57 38.92 86.44 38.59
  A 0.14 0.14 0.0 0 0 86.53 38.35"
/>
<path stroke="#859287" vector-effect="non-scaling-stroke" d="
  M 173.15 22.94
  Q 168.74 23.81 166.72 27.79
  Q 165.44 30.32 165.41 35.94
  Q 165.31 54.86 165.31 73.80"
/>
<path stroke="#80847a" vector-effect="non-scaling-stroke" d="
  M 165.31 73.80
  L 165.35 105.33
  A 2.09 2.04 -58.4 0 0 165.55 106.22
  Q 167.12 109.63 170.99 108.29
  Q 244.80 82.73 305.76 62.18
  A 1.26 1.26 0.0 0 0 306.34 60.20
  Q 305.83 59.56 304.60 59.20
  Q 296.53 56.86 202.33 28.94
  Q 185.71 24.01 178.66 22.31
  Q 176.83 21.87 173.15 22.94"
/>
<path stroke="#132c23" vector-effect="non-scaling-stroke" d="
  M 165.31 73.80
  Q 166.91 89.51 166.58 105.33
  A 1.27 1.25 -62.3 0 0 166.81 106.09
  Q 167.92 107.72 169.53 107.38
  Q 171.13 107.05 175.43 105.58
  Q 200.08 97.11 222.72 89.42
  Q 227.97 87.63 233.06 85.93
  Q 244.29 82.16 255.50 78.14
  Q 259.68 76.64 264.01 75.13
  Q 274.96 71.29 287.99 67.01
  Q 288.93 66.71 289.58 66.29
  A 2.19 2.01 18.8 0 1 290.24 66.00
  Q 295.15 64.75 301.93 62.47
  Q 303.04 62.10 304.60 61.18
  A 0.49 0.49 0.0 0 0 304.49 60.29
  C 288.64 55.63 275.73 51.54 260.15 47.04
  Q 235.21 39.85 211.49 32.52
  Q 208.69 31.65 201.66 29.84
  C 195.40 28.22 188.05 25.57 180.81 23.96
  Q 179.75 23.73 176.97 23.57
  Q 175.05 23.47 173.15 22.94"
/>
<path stroke="#828d7e" vector-effect="non-scaling-stroke" d="
  M 210.84 40.73
  Q 205.86 39.68 202.75 42.53"
/>
<path stroke="#132c23" vector-effect="non-scaling-stroke" d="
  M 202.75 42.53
  C 197.57 46.34 198.27 52.91 196.79 58.54
  A 0.89 0.89 0.0 0 1 196.24 59.14
  L 190.27 61.39
  A 0.31 0.31 0.0 0 1 189.86 61.04
  Q 190.77 55.85 191.54 54.21
  Q 195.29 46.20 197.70 39.72
  A 1.04 1.03 36.8 0 0 197.56 38.77
  Q 197.07 38.09 197.02 38.67"
/>
<path stroke="#828d7e" vector-effect="non-scaling-stroke" d="
  M 197.02 38.67
  C 195.64 38.27 194.24 38.27 192.74 38.07
  Q 191.13 37.87 190.37 39.64
  Q 187.06 47.34 182.40 56.86
  A 0.29 0.29 0.0 0 1 181.85 56.74
  L 181.85 37.51
  A 0.73 0.73 0.0 0 0 181.32 36.81
  Q 180.31 36.51 179.19 36.65"
/>
<path stroke="#132c23" vector-effect="non-scaling-stroke" d="
  M 179.19 36.65
  L 181.12 35.99
  A 0.35 0.34 31.9 0 0 180.96 35.32
  L 175.18 36.04
  A 0.95 0.95 0.0 0 0 174.34 36.98
  L 174.34 90.91
  A 1.48 1.47 90.0 0 0 175.81 92.39
  L 181.56 92.39
  A 1.62 1.62 0.0 0 0 183.17 90.63
  Q 182.51 82.67 183.60 73.94
  A 0.55 0.55 0.0 0 1 184.67 73.83
  L 189.05 87.46
  A 3.09 3.08 -12.4 0 0 192.36 89.57
  L 195.95 89.13
  A 2.49 2.49 0.0 0 0 197.98 85.81
  Q 197.04 83.25 196.42 80.79
  Q 196.02 79.20 197.12 78.96
  A 0.69 0.69 0.0 0 0 197.67 78.32
  Q 197.84 75.93 196.15 75.91
  A 0.78 0.77 -8.7 0 1 195.41 75.37
  L 194.88 73.73
  A 0.79 0.79 0.0 0 1 195.23 72.81
  L 196.82 71.90
  A 0.58 0.58 0.0 0 1 197.68 72.28
  Q 198.06 74.06 198.60 77.22
  C 199.83 84.42 208.43 89.02 214.09 82.72
  Q 218.31 78.03 217.56 70.73
  A 1.61 1.60 19.0 0 0 217.07 69.73
  Q 214.64 67.43 211.17 68.86
  A 1.30 1.26 -88.4 0 0 210.51 69.50
  Q 209.50 71.68 209.86 74.43
  Q 210.08 76.11 208.47 77.10
  A 0.68 0.68 0.0 0 1 207.51 76.83
  Q 206.02 73.88 205.97 72.63
  Q 205.60 63.11 205.68 57.00
  Q 205.70 56.08 206.23 54.15
  C 206.80 52.11 206.03 50.48 207.11 48.47
  A 0.95 0.94 44.9 0 1 208.78 48.47
  Q 210.03 50.79 209.89 53.21
  Q 209.81 54.64 210.97 55.08
  Q 214.81 56.54 217.19 53.89
  A 1.65 1.65 0.0 0 0 217.61 52.79
  Q 217.64 42.93 210.84 40.73"
/>
<path stroke="#7d7f71" vector-effect="non-scaling-stroke" d="
  M 179.19 36.65
  L 176.37 36.46
  A 0.96 0.96 0.0 0 0 175.35 37.42
  L 175.35 90.63
  A 1.16 1.16 0.0 0 0 176.65 91.78
  L 180.63 91.29
  A 1.34 1.34 0.0 0 0 181.80 89.97
  Q 181.85 78.09 181.90 71.54
  Q 181.91 70.64 183.55 67.90
  A 0.33 0.32 -38.8 0 1 184.14 67.96
  L 190.51 87.78
  A 1.40 1.40 0.0 0 0 192.02 88.74
  L 196.33 88.21
  A 1.23 1.23 0.0 0 0 197.33 86.57
  Q 193.54 76.12 189.62 64.19
  C 189.17 62.82 187.86 60.06 188.53 58.55
  Q 196.54 40.59 196.94 39.69
  Q 197.04 39.47 197.02 38.67"
/>
<path stroke="#7d7f71" vector-effect="non-scaling-stroke" d="
  M 202.75 42.53
  Q 199.56 46.59 199.02 51.78
  Q 198.19 59.71 198.70 69.79
  C 199.00 75.80 200.86 87.59 210.20 84.43
  C 215.43 82.65 216.57 76.58 216.70 71.26
  A 1.73 1.73 0.0 0 0 214.97 69.49
  L 213.13 69.49
  A 1.85 1.85 0.0 0 0 211.28 71.31
  C 211.24 74.11 211.08 77.41 208.25 78.33
  A 0.95 0.94 56.8 0 1 207.32 78.13
  Q 205.28 76.24 205.01 73.23
  C 204.38 65.91 204.02 56.57 205.70 48.89
  A 2.63 2.59 -77.7 0 1 208.79 46.87
  Q 209.42 47.00 210.16 48.38
  Q 211.26 50.44 211.06 53.11
  A 1.18 1.18 0.0 0 0 212.38 54.36
  L 215.08 54.02
  A 1.46 1.46 0.0 0 0 216.35 52.74
  Q 217.20 45.22 210.84 40.73"
/>
<path stroke="#132c23" vector-effect="non-scaling-stroke" d="
  M 243.37 53.77
  A 4.92 4.91 -46.5 0 1 238.21 53.91
  L 233.75 51.34
  A 5.04 5.03 -35.2 0 0 230.31 50.75
  Q 226.57 51.44 222.80 54.44
  A 1.57 1.57 0.0 0 0 222.42 56.45
  L 222.64 56.82
  A 1.80 1.79 56.7 0 0 225.26 57.37
  Q 227.99 55.33 231.04 54.65
  A 1.71 1.70 -37.9 0 1 232.17 54.79
  Q 236.28 56.88 237.73 57.59
  Q 240.38 58.88 242.61 58.04
  Q 245.01 57.14 248.38 55.41
  A 4.38 4.36 -44.6 0 1 252.40 55.43
  L 256.59 57.63
  A 2.07 2.07 0.0 0 0 259.25 56.99
  L 259.29 56.94
  A 1.51 1.51 0.0 0 0 258.79 54.62
  Q 255.19 52.85 253.67 51.80
  Q 252.33 50.89 247.56 51.26
  A 1.75 1.74 -63.7 0 0 246.80 51.52
  L 243.37 53.77"
/>
<path stroke="#132c23" vector-effect="non-scaling-stroke" d="
  M 252.40 63.06
  Q 256.53 64.78 256.94 64.93
  A 2.06 2.05 -67.0 0 0 259.52 63.88
  L 259.60 63.74
  A 1.53 1.53 0.0 0 0 258.80 61.58
  L 251.67 58.87
  A 0.44 0.29 -22.8 0 0 251.51 58.84
  C 247.90 58.74 245.07 60.98 242.67 62.15
  A 2.51 2.35 28.5 0 1 241.75 62.39
  C 238.85 62.53 236.64 61.07 233.42 59.43
  A 3.32 3.20 -29.8 0 0 232.03 59.08
  Q 227.59 58.97 223.02 62.46
  A 1.55 1.54 -41.7 0 0 222.88 64.81
  L 223.00 64.92
  A 2.16 2.16 0.0 0 0 225.86 65.05
  Q 228.39 63.03 231.46 63.00
  A 0.51 0.44 -30.8 0 1 231.63 63.03
  L 238.61 66.00
  A 5.06 5.06 0.0 0 0 242.88 65.85
  Q 242.99 65.80 247.47 63.52
  Q 250.20 62.14 252.40 63.06"
/>
<path stroke="#859287" vector-effect="non-scaling-stroke" d="
  M 264.02 66.16
  Q 263.97 66.41 263.99 66.58
  A 0.36 0.35 4.5 0 0 264.27 66.90
  Q 264.42 66.94 264.57 67.02"
/>
<path stroke="#132c23" vector-effect="non-scaling-stroke" d="
  M 264.57 67.02
  Q 264.11 67.18 264.09 67.28
  A 0.49 0.49 0.0 0 0 264.80 67.87
  L 272.20 63.65
  A 0.44 0.41 28.2 0 1 272.42 63.59
  C 274.59 63.50 276.82 64.63 278.62 64.46
  Q 282.85 64.07 284.55 63.56
  A 1.86 1.85 -47.4 0 0 284.40 59.97
  C 281.72 59.41 278.94 60.18 276.67 59.88
  C 272.75 59.35 269.07 60.29 264.95 59.39
  A 2.21 1.81 12.3 0 0 262.40 60.69
  Q 262.17 61.79 262.76 63.39
  A 0.83 0.82 -13.8 0 0 263.62 63.91
  L 265.26 63.70
  A 0.31 0.31 0.0 0 1 265.45 64.27
  Q 264.94 64.57 264.16 64.61
  A 0.16 0.07 59.8 0 0 264.18 64.82
  Q 264.19 64.83 264.34 65.01
  A 0.01 0.01 0.0 0 1 264.34 65.03
  Q 261.98 67.53 264.02 66.16"
/>
<path stroke="#80847a" vector-effect="non-scaling-stroke" d="
  M 264.57 67.02
  Q 266.80 66.16 270.22 63.46
  Q 271.27 62.64 273.75 62.40
  A 2.41 2.41 0.0 0 1 274.67 62.50
  C 278.83 63.78 280.69 63.00 284.92 62.21
  A 0.29 0.29 0.0 0 0 285.02 61.67
  L 283.78 60.95
  A 1.55 1.54 48.6 0 0 282.42 60.86
  Q 278.42 62.47 275.03 60.87
  A 3.11 3.06 -37.5 0 0 273.10 60.63
  L 270.85 61.08
  A 4.91 4.68 41.8 0 1 269.31 61.13
  L 264.42 60.51
  A 1.11 1.11 0.0 0 0 263.18 61.47
  L 263.14 61.83
  A 0.73 0.72 89.1 0 0 263.97 62.64
  Q 266.12 62.30 268.11 62.86
  A 0.75 0.75 0.0 0 1 268.22 64.27
  L 264.02 66.16"
/>
<path stroke="#132c23" vector-effect="non-scaling-stroke" d="
  M 222.84 72.76
  A 2.04 2.03 55.3 0 0 225.13 73.18
  L 230.41 70.75
  A 1.43 1.41 45.5 0 1 231.61 70.77
  C 236.00 72.87 239.68 75.41 243.48 73.63
  Q 246.29 72.30 248.92 70.78
  A 2.88 2.88 0.0 0 1 250.62 70.40
  Q 252.81 70.59 255.09 71.94
  C 256.61 72.84 257.55 72.96 258.95 71.55
  A 1.55 1.55 0.0 0 0 258.35 68.98
  L 252.11 66.89
  Q 252.06 66.88 252.01 66.87
  C 248.78 66.44 246.66 67.82 243.58 69.47
  A 2.56 2.49 26.3 0 1 242.68 69.76
  Q 238.32 70.31 235.72 68.56
  C 231.26 65.56 227.36 67.65 223.11 70.40
  A 1.54 1.54 0.0 0 0 222.78 72.70
  L 222.84 72.76"
/>
<path stroke="#80847a" vector-effect="non-scaling-stroke" d="
  M 258.42 55.05
  C 257.44 54.87 256.39 54.64 255.63 54.03
  C 251.69 50.88 248.10 51.85 244.35 54.30
  C 237.87 58.52 234.70 49.46 227.80 52.59
  Q 226.61 53.13 223.18 55.23
  A 0.45 0.45 0.0 0 0 223.29 56.04
  L 223.97 56.24
  A 1.17 1.16 35.4 0 0 224.95 56.08
  Q 228.35 53.73 231.43 53.76
  A 2.72 2.72 0.0 0 1 232.71 54.08
  Q 237.33 56.51 237.79 56.69
  C 243.34 58.85 244.82 54.78 250.26 53.92
  C 252.68 53.53 257.23 58.13 258.78 55.95
  A 0.58 0.57 -67.0 0 0 258.42 55.05"
/>
<path stroke="#80847a" vector-effect="non-scaling-stroke" d="
  M 258.42 62.61
  C 257.44 62.45 256.39 62.25 255.62 61.65
  C 251.62 58.59 248.05 59.64 244.36 62.16
  C 237.98 66.51 234.63 57.53 227.81 60.81
  Q 226.63 61.37 223.25 63.54
  A 0.45 0.45 0.0 0 0 223.38 64.34
  L 224.06 64.53
  A 1.17 1.16 34.2 0 0 225.03 64.35
  Q 228.38 61.93 231.45 61.90
  A 2.72 2.72 0.0 0 1 232.74 62.19
  Q 237.40 64.52 237.86 64.69
  C 243.45 66.72 244.84 62.63 250.25 61.66
  C 252.66 61.22 257.30 65.71 258.80 63.50
  A 0.57 0.57 0.0 0 0 258.42 62.61"
/>
<path stroke="#80847a" vector-effect="non-scaling-stroke" d="
  M 257.80 69.70
  C 257.04 69.69 256.23 69.62 255.52 69.17
  C 247.63 64.23 245.66 72.69 239.07 71.23
  A 5.83 5.46 62.2 0 1 238.00 70.86
  Q 237.39 70.56 233.66 68.68
  C 230.11 66.89 226.92 69.16 223.36 71.36
  A 0.43 0.43 0.0 0 0 223.43 72.13
  L 224.07 72.37
  A 0.93 0.91 38.9 0 0 224.90 72.29
  Q 227.77 70.51 230.60 69.93
  A 3.06 3.00 -40.5 0 1 232.22 70.04
  C 236.24 71.45 238.78 74.53 244.12 72.35
  C 245.89 71.62 249.36 68.58 251.77 69.55
  C 254.70 70.74 256.55 71.87 258.09 71.25
  A 0.81 0.80 34.4 0 0 257.80 69.70"
/>
<path stroke="#5e746e" vector-effect="non-scaling-stroke" d="
  M 112.19 77.66
  L 112.21 76.74
  A 0.22 0.22 0.0 0 0 111.99 76.51
  L 109.28 76.47
  A 5.79 0.53 1.0 0 0 103.48 76.89
  L 103.48 77.19
  A 5.79 0.53 1.0 0 0 109.26 77.82
  L 111.97 77.87
  A 0.22 0.22 0.0 0 0 112.19 77.66"
/>
<path stroke="#71847b" vector-effect="non-scaling-stroke" d="
  M 88.46 82.12
  Q 88.45 82.97 97.26 82.92
  Q 97.77 82.92 98.57 82.65
  A 2.07 2.00 -50.0 0 1 99.51 82.55
  Q 106.48 83.42 106.49 82.30
  Q 106.50 81.19 99.51 81.91
  A 2.07 2.00 51.2 0 1 98.58 81.79
  Q 97.78 81.51 97.27 81.50
  Q 88.47 81.26 88.46 82.12"
/>
<path stroke="#7f948f" vector-effect="non-scaling-stroke" d="
  M 89.08 88.57
  L 89.06 87.69
  A 0.16 0.16 0.0 0 0 88.89 87.53
  L 82.68 87.69
  A 13.67 0.46 -1.5 0 0 69.03 88.51
  L 69.04 88.79
  A 13.67 0.46 -1.5 0 0 82.71 88.89
  L 88.92 88.73
  A 0.16 0.16 0.0 0 0 89.08 88.57"
/>
<path stroke="#486c6f" vector-effect="non-scaling-stroke" d="
  M 100.3922 88.1732
  A 0.26 0.26 0.0 0 0 100.1363 87.9091
  L 92.6172 87.7910
  A 0.26 0.26 0.0 0 0 92.3532 88.0469
  L 92.3478 88.3868
  A 0.26 0.26 0.0 0 0 92.6037 88.6509
  L 100.1228 88.7690
  A 0.26 0.26 0.0 0 0 100.3868 88.5131
  L 100.3922 88.1732"
/>
<path stroke="#7c8f87" vector-effect="non-scaling-stroke" d="
  M 104.6795 94.2789
  A 0.27 0.27 0.0 0 0 104.4086 94.0098
  L 87.1087 94.0702
  A 0.27 0.27 0.0 0 0 86.8396 94.3411
  L 86.8405 94.6011
  A 0.27 0.27 0.0 0 0 87.1114 94.8702
  L 104.4113 94.8098
  A 0.27 0.27 0.0 0 0 104.6804 94.5389
  L 104.6795 94.2789"
/>
<path stroke="#71847b" vector-effect="non-scaling-stroke" d="
  M 60.76 101.99
  Q 61.76 102.02 62.74 101.95
  Q 67.95 101.61 73.20 101.72
  A 0.30 0.30 0.0 0 0 73.27 101.13
  Q 68.37 99.97 63.23 101.20
  Q 63.20 101.21 61.00 101.15
  Q 59.99 101.12 59.01 101.18
  Q 53.80 101.52 48.55 101.41
  A 0.30 0.30 0.0 0 0 48.48 102.00
  Q 53.38 103.16 58.52 101.93
  Q 58.56 101.92 60.76 101.99"
/>
<path stroke="#486c6f" vector-effect="non-scaling-stroke" d="
  M 85.4693 101.9963
  A 0.56 0.56 0.0 0 0 84.9232 101.4228
  L 78.1652 101.2576
  A 0.56 0.56 0.0 0 0 77.5917 101.8037
  L 77.5907 101.8437
  A 0.56 0.56 0.0 0 0 78.1368 102.4172
  L 84.8948 102.5824
  A 0.56 0.56 0.0 0 0 85.4683 102.0363
  L 85.4693 101.9963"
/>
</g>

<path fill="#0a2427" d="
  M 30.73 98.27
  L 28.50 95.87
  Q 19.30 84.08 17.25 70.75
  C 9.46 20.19 69.28 -10.66 107.21 22.33
  C 126.94 39.49 131.06 68.79 116.81 90.90
  C 97.27 121.22 55.03 123.60 30.73 98.27
  Z
  M 19.6595 61.0848
  A 51.32 50.53 -178.9 0 0 70.0000 112.5907
  A 51.32 50.53 -178.9 0 0 122.2805 63.0552
  A 51.32 50.53 -178.9 0 0 71.9400 11.5493
  A 51.32 50.53 -178.9 0 0 19.6595 61.0848
  Z
  M 109.18 97.63
  Q 107.42 99.44 107.60 99.61
  Q 107.77 99.78 109.53 97.97
  Q 111.29 96.16 111.12 95.99
  Q 110.94 95.82 109.18 97.63
  Z"
/>
<path fill="#f2eadd" d="
  M 19.6595 61.0848
  A 51.32 50.53 -178.9 0 1 71.9400 11.5493
  A 51.32 50.53 -178.9 0 1 122.2805 63.0552
  A 51.32 50.53 -178.9 0 1 70.0000 112.5907
  A 51.32 50.53 -178.9 0 1 19.6595 61.0848
  Z
  M 23.54 56.08
  Q 22.71 62.97 23.75 69.96
  A 0.71 0.70 85.4 0 0 24.46 70.57
  L 90.18 70.42
  Q 90.91 70.75 90.65 71.79
  Q 63.76 73.02 53.00 72.47
  Q 38.99 71.75 24.91 71.96
  A 0.56 0.56 0.0 0 0 24.39 72.69
  L 25.64 76.53
  L 27.89 82.01
  A 0.77 0.76 79.4 0 0 28.58 82.49
  L 37.31 82.80
  A 1.17 1.14 -57.1 0 0 37.88 82.67
  Q 39.41 81.93 40.27 81.92
  Q 46.13 81.83 54.00 82.76
  A 0.30 0.29 -41.4 0 1 53.96 83.35
  L 30.14 83.35
  A 1.07 1.07 0.0 0 0 29.21 84.96
  L 30.49 87.18
  A 2.32 2.31 74.9 0 0 32.49 88.33
  L 42.01 88.33
  A 1.09 0.87 29.7 0 0 42.33 88.28
  Q 45.75 87.03 47.01 87.53
  Q 49.33 88.45 49.77 88.54
  A 0.90 0.77 -38.4 0 0 50.06 88.55
  L 54.74 87.74
  A 2.17 2.10 49.4 0 1 55.90 87.85
  Q 58.14 88.69 59.94 88.84
  A 2.29 2.20 35.8 0 0 60.92 88.70
  Q 63.09 87.83 65.25 87.75
  Q 67.57 88.29 66.14 88.66
  Q 63.52 88.49 60.76 89.33
  A 3.07 3.04 42.3 0 1 59.26 89.39
  Q 54.79 88.47 50.55 89.36
  A 1.55 1.44 41.9 0 1 49.98 89.37
  L 47.29 88.91
  A 0.58 0.21 25.1 0 0 47.18 88.90
  L 32.89 89.21
  A 0.64 0.64 0.0 0 0 32.45 90.31
  L 39.48 97.26
  Q 41.28 99.41 42.81 100.45
  Q 59.29 111.68 78.51 108.72
  Q 91.33 106.75 100.09 99.51
  Q 106.11 94.54 108.49 91.52
  Q 115.03 83.19 117.73 72.51
  A 0.93 0.88 43.4 0 0 117.70 71.97
  Q 117.58 71.68 117.42 71.54
  Q 116.50 70.81 116.85 70.27
  Q 117.20 70.34 117.53 70.28
  A 0.79 0.77 -89.3 0 0 118.16 69.65
  Q 119.19 63.72 118.57 58.23
  L 117.60 52.34
  L 116.48 47.71
  Q 116.13 44.48 113.92 40.50
  C 110.84 34.95 107.95 30.37 102.95 26.65
  C 94.40 20.29 84.62 14.83 74.67 14.71
  Q 64.78 14.60 61.51 15.34
  Q 49.73 18.03 40.74 25.71
  Q 39.74 26.57 36.99 28.07
  A 2.37 2.15 0.9 0 0 36.25 28.72
  Q 27.68 40.47 26.67 42.43
  Q 24.20 47.21 23.54 56.08
  Z"
/>
<path fill="#ece0cc" d="
  M 312.46 58.05
  Q 313.03 62.10 311.35 64.50
  Q 310.01 66.40 305.66 67.74
  C 293.67 71.42 282.76 75.67 269.45 79.99
  Q 262.08 82.39 233.55 92.29
  Q 229.45 93.71 176.87 111.84
  C 172.14 113.47 167.39 115.07 163.25 112.40
  C 162.02 108.74 160.39 103.64 161.61 99.92
  A 0.89 0.89 0.0 0 1 162.98 99.47
  L 163.26 99.66
  A 0.96 0.95 15.9 0 1 163.68 100.41
  L 164.00 106.51
  A 0.59 0.56 22.0 0 0 164.17 106.89
  L 166.83 109.55
  A 1.09 1.08 -27.5 0 0 167.79 109.85
  Q 174.31 108.66 176.75 107.78
  C 191.47 102.49 207.98 97.13 220.23 92.80
  Q 261.27 78.27 299.36 65.85
  Q 303.84 64.39 307.48 62.18
  A 1.23 1.22 49.5 0 0 307.63 60.20
  L 304.62 57.65
  A 3.23 3.17 73.1 0 0 303.50 57.04
  L 251.86 41.82
  A 0.33 0.33 0.0 0 1 251.62 41.50
  L 251.62 41.21
  A 0.19 0.19 0.0 0 1 251.85 41.03
  Q 266.03 44.50 280.14 48.65
  Q 283.67 49.68 287.76 49.39
  A 0.07 0.07 0.0 0 0 287.77 49.25
  Q 245.29 36.34 201.81 23.43
  Q 184.10 18.18 177.33 16.44
  C 169.96 14.54 161.83 14.05 159.76 23.48
  Q 159.11 23.49 158.79 23.97
  C 161.09 10.43 173.84 14.42 183.45 17.04
  C 192.26 19.45 210.73 24.52 222.42 28.16
  Q 259.80 39.82 301.30 51.71
  Q 306.99 53.34 309.36 54.63
  Q 312.14 56.14 312.46 58.05
  Z"
/>
<path fill="#d6cab5" d="
  M 116.48 47.71
  Q 114.25 46.97 111.96 46.13
  C 107.70 44.57 102.33 40.72 100.04 39.71
  Q 97.65 38.64 96.09 39.40
  Q 91.17 41.76 87.56 45.43
  A 1.19 1.19 0.0 0 1 85.98 45.52
  C 84.15 44.08 82.18 45.53 80.78 46.57
  A 0.94 0.91 36.4 0 1 79.90 46.69
  Q 73.65 44.30 68.65 39.97
  A 3.75 3.74 53.0 0 0 64.63 39.40
  Q 61.54 40.81 58.41 43.67
  Q 55.49 46.34 54.97 46.49
  Q 51.53 47.51 48.65 49.61
  Q 47.23 47.47 45.32 46.21
  Q 48.16 44.45 51.03 43.83
  A 2.18 2.16 88.3 0 0 52.73 42.01
  Q 53.41 37.30 50.00 34.57
  C 43.20 29.14 35.61 35.95 39.52 43.42
  L 31.32 47.09
  A 0.32 0.31 36.7 0 0 31.41 47.69
  Q 37.47 48.53 39.74 53.74
  Q 38.82 54.37 38.52 54.97
  L 31.04 53.93
  A 1.53 1.51 34.4 0 0 30.10 54.10
  Q 27.16 55.70 23.54 56.08
  Q 24.20 47.21 26.67 42.43
  Q 27.68 40.47 36.25 28.72
  A 2.37 2.15 0.9 0 1 36.99 28.07
  Q 39.74 26.57 40.74 25.71
  Q 49.73 18.03 61.51 15.34
  Q 64.78 14.60 74.67 14.71
  C 84.62 14.83 94.40 20.29 102.95 26.65
  C 107.95 30.37 110.84 34.95 113.92 40.50
  Q 116.13 44.48 116.48 47.71
  Z
  M 86.53 38.35
  L 85.37 37.19
  A 0.21 0.21 0.0 0 1 85.52 36.83
  L 89.21 36.83
  A 0.61 0.61 0.0 0 0 89.47 35.66
  C 79.18 30.86 68.64 28.49 58.20 34.24
  A 0.80 0.80 0.0 0 0 58.25 35.67
  Q 61.32 37.06 65.47 37.73
  Q 68.59 38.23 82.15 38.90
  Q 82.57 38.92 86.44 38.59
  A 0.14 0.14 0.0 0 0 86.53 38.35
  Z"
/>
<path fill="#f2eadd" d="
  M 163.25 112.40
  Q 162.22 111.85 161.55 111.03
  Q 159.99 108.37 159.99 106.74
  Q 159.99 98.38 159.99 90.50
  Q 160.00 74.50 159.75 58.50
  C 159.59 47.69 160.01 35.17 159.76 23.48
  C 161.83 14.05 169.96 14.54 177.33 16.44
  Q 184.10 18.18 201.81 23.43
  Q 245.29 36.34 287.77 49.25
  A 0.07 0.07 0.0 0 1 287.76 49.39
  Q 283.67 49.68 280.14 48.65
  Q 266.03 44.50 251.85 41.03
  A 0.19 0.19 0.0 0 0 251.62 41.21
  L 251.62 41.50
  A 0.33 0.33 0.0 0 0 251.86 41.82
  L 303.50 57.04
  A 3.23 3.17 73.1 0 1 304.62 57.65
  L 307.63 60.20
  A 1.23 1.22 49.5 0 1 307.48 62.18
  Q 303.84 64.39 299.36 65.85
  Q 261.27 78.27 220.23 92.80
  C 207.98 97.13 191.47 102.49 176.75 107.78
  Q 174.31 108.66 167.79 109.85
  A 1.09 1.08 -27.5 0 1 166.83 109.55
  L 164.17 106.89
  A 0.59 0.56 22.0 0 1 164.00 106.51
  L 163.68 100.41
  A 0.96 0.95 15.9 0 0 163.26 99.66
  L 162.98 99.47
  A 0.89 0.89 0.0 0 0 161.61 99.92
  C 160.39 103.64 162.02 108.74 163.25 112.40
  Z
  M 173.15 22.94
  Q 168.74 23.81 166.72 27.79
  Q 165.44 30.32 165.41 35.94
  Q 165.31 54.86 165.31 73.80
  L 165.35 105.33
  A 2.09 2.04 -58.4 0 0 165.55 106.22
  Q 167.12 109.63 170.99 108.29
  Q 244.80 82.73 305.76 62.18
  A 1.26 1.26 0.0 0 0 306.34 60.20
  Q 305.83 59.56 304.60 59.20
  Q 296.53 56.86 202.33 28.94
  Q 185.71 24.01 178.66 22.31
  Q 176.83 21.87 173.15 22.94
  Z"
/>
<path fill="#0d1d16" d="
  M 165.31 73.80
  Q 166.91 89.51 166.58 105.33
  A 1.27 1.25 -62.3 0 0 166.81 106.09
  Q 167.92 107.72 169.53 107.38
  Q 171.13 107.05 175.43 105.58
  Q 200.08 97.11 222.72 89.42
  Q 227.97 87.63 233.06 85.93
  Q 244.29 82.16 255.50 78.14
  Q 259.68 76.64 264.01 75.13
  Q 274.96 71.29 287.99 67.01
  Q 288.93 66.71 289.58 66.29
  A 2.19 2.01 18.8 0 1 290.24 66.00
  Q 295.15 64.75 301.93 62.47
  Q 303.04 62.10 304.60 61.18
  A 0.49 0.49 0.0 0 0 304.49 60.29
  C 288.64 55.63 275.73 51.54 260.15 47.04
  Q 235.21 39.85 211.49 32.52
  Q 208.69 31.65 201.66 29.84
  C 195.40 28.22 188.05 25.57 180.81 23.96
  Q 179.75 23.73 176.97 23.57
  Q 175.05 23.47 173.15 22.94
  Q 176.83 21.87 178.66 22.31
  Q 185.71 24.01 202.33 28.94
  Q 296.53 56.86 304.60 59.20
  Q 305.83 59.56 306.34 60.20
  A 1.26 1.26 0.0 0 1 305.76 62.18
  Q 244.80 82.73 170.99 108.29
  Q 167.12 109.63 165.55 106.22
  A 2.09 2.04 -58.4 0 1 165.35 105.33
  L 165.31 73.80
  Z"
/>
<path fill="#183a30" d="
  M 173.15 22.94
  Q 175.05 23.47 176.97 23.57
  Q 179.75 23.73 180.81 23.96
  C 188.05 25.57 195.40 28.22 201.66 29.84
  Q 208.69 31.65 211.49 32.52
  Q 235.21 39.85 260.15 47.04
  C 275.73 51.54 288.64 55.63 304.49 60.29
  A 0.49 0.49 0.0 0 1 304.60 61.18
  Q 303.04 62.10 301.93 62.47
  Q 295.15 64.75 290.24 66.00
  A 2.19 2.01 18.8 0 0 289.58 66.29
  Q 288.93 66.71 287.99 67.01
  Q 274.96 71.29 264.01 75.13
  Q 259.68 76.64 255.50 78.14
  Q 244.29 82.16 233.06 85.93
  Q 227.97 87.63 222.72 89.42
  Q 200.08 97.11 175.43 105.58
  Q 171.13 107.05 169.53 107.38
  Q 167.92 107.72 166.81 106.09
  A 1.27 1.25 -62.3 0 1 166.58 105.33
  Q 166.91 89.51 165.31 73.80
  Q 165.31 54.86 165.41 35.94
  Q 165.44 30.32 166.72 27.79
  Q 168.74 23.81 173.15 22.94
  Z
  M 210.84 40.73
  Q 205.86 39.68 202.75 42.53
  C 197.57 46.34 198.27 52.91 196.79 58.54
  A 0.89 0.89 0.0 0 1 196.24 59.14
  L 190.27 61.39
  A 0.31 0.31 0.0 0 1 189.86 61.04
  Q 190.77 55.85 191.54 54.21
  Q 195.29 46.20 197.70 39.72
  A 1.04 1.03 36.8 0 0 197.56 38.77
  Q 197.07 38.09 197.02 38.67
  C 195.64 38.27 194.24 38.27 192.74 38.07
  Q 191.13 37.87 190.37 39.64
  Q 187.06 47.34 182.40 56.86
  A 0.29 0.29 0.0 0 1 181.85 56.74
  L 181.85 37.51
  A 0.73 0.73 0.0 0 0 181.32 36.81
  Q 180.31 36.51 179.19 36.65
  L 181.12 35.99
  A 0.35 0.34 31.9 0 0 180.96 35.32
  L 175.18 36.04
  A 0.95 0.95 0.0 0 0 174.34 36.98
  L 174.34 90.91
  A 1.48 1.47 90.0 0 0 175.81 92.39
  L 181.56 92.39
  A 1.62 1.62 0.0 0 0 183.17 90.63
  Q 182.51 82.67 183.60 73.94
  A 0.55 0.55 0.0 0 1 184.67 73.83
  L 189.05 87.46
  A 3.09 3.08 -12.4 0 0 192.36 89.57
  L 195.95 89.13
  A 2.49 2.49 0.0 0 0 197.98 85.81
  Q 197.04 83.25 196.42 80.79
  Q 196.02 79.20 197.12 78.96
  A 0.69 0.69 0.0 0 0 197.67 78.32
  Q 197.84 75.93 196.15 75.91
  A 0.78 0.77 -8.7 0 1 195.41 75.37
  L 194.88 73.73
  A 0.79 0.79 0.0 0 1 195.23 72.81
  L 196.82 71.90
  A 0.58 0.58 0.0 0 1 197.68 72.28
  Q 198.06 74.06 198.60 77.22
  C 199.83 84.42 208.43 89.02 214.09 82.72
  Q 218.31 78.03 217.56 70.73
  A 1.61 1.60 19.0 0 0 217.07 69.73
  Q 214.64 67.43 211.17 68.86
  A 1.30 1.26 -88.4 0 0 210.51 69.50
  Q 209.50 71.68 209.86 74.43
  Q 210.08 76.11 208.47 77.10
  A 0.68 0.68 0.0 0 1 207.51 76.83
  Q 206.02 73.88 205.97 72.63
  Q 205.60 63.11 205.68 57.00
  Q 205.70 56.08 206.23 54.15
  C 206.80 52.11 206.03 50.48 207.11 48.47
  A 0.95 0.94 44.9 0 1 208.78 48.47
  Q 210.03 50.79 209.89 53.21
  Q 209.81 54.64 210.97 55.08
  Q 214.81 56.54 217.19 53.89
  A 1.65 1.65 0.0 0 0 217.61 52.79
  Q 217.64 42.93 210.84 40.73
  Z
  M 243.37 53.77
  A 4.92 4.91 -46.5 0 1 238.21 53.91
  L 233.75 51.34
  A 5.04 5.03 -35.2 0 0 230.31 50.75
  Q 226.57 51.44 222.80 54.44
  A 1.57 1.57 0.0 0 0 222.42 56.45
  L 222.64 56.82
  A 1.80 1.79 56.7 0 0 225.26 57.37
  Q 227.99 55.33 231.04 54.65
  A 1.71 1.70 -37.9 0 1 232.17 54.79
  Q 236.28 56.88 237.73 57.59
  Q 240.38 58.88 242.61 58.04
  Q 245.01 57.14 248.38 55.41
  A 4.38 4.36 -44.6 0 1 252.40 55.43
  L 256.59 57.63
  A 2.07 2.07 0.0 0 0 259.25 56.99
  L 259.29 56.94
  A 1.51 1.51 0.0 0 0 258.79 54.62
  Q 255.19 52.85 253.67 51.80
  Q 252.33 50.89 247.56 51.26
  A 1.75 1.74 -63.7 0 0 246.80 51.52
  L 243.37 53.77
  Z
  M 252.40 63.06
  Q 256.53 64.78 256.94 64.93
  A 2.06 2.05 -67.0 0 0 259.52 63.88
  L 259.60 63.74
  A 1.53 1.53 0.0 0 0 258.80 61.58
  L 251.67 58.87
  A 0.44 0.29 -22.8 0 0 251.51 58.84
  C 247.90 58.74 245.07 60.98 242.67 62.15
  A 2.51 2.35 28.5 0 1 241.75 62.39
  C 238.85 62.53 236.64 61.07 233.42 59.43
  A 3.32 3.20 -29.8 0 0 232.03 59.08
  Q 227.59 58.97 223.02 62.46
  A 1.55 1.54 -41.7 0 0 222.88 64.81
  L 223.00 64.92
  A 2.16 2.16 0.0 0 0 225.86 65.05
  Q 228.39 63.03 231.46 63.00
  A 0.51 0.44 -30.8 0 1 231.63 63.03
  L 238.61 66.00
  A 5.06 5.06 0.0 0 0 242.88 65.85
  Q 242.99 65.80 247.47 63.52
  Q 250.20 62.14 252.40 63.06
  Z
  M 264.02 66.16
  Q 263.97 66.41 263.99 66.58
  A 0.36 0.35 4.5 0 0 264.27 66.90
  Q 264.42 66.94 264.57 67.02
  Q 264.11 67.18 264.09 67.28
  A 0.49 0.49 0.0 0 0 264.80 67.87
  L 272.20 63.65
  A 0.44 0.41 28.2 0 1 272.42 63.59
  C 274.59 63.50 276.82 64.63 278.62 64.46
  Q 282.85 64.07 284.55 63.56
  A 1.86 1.85 -47.4 0 0 284.40 59.97
  C 281.72 59.41 278.94 60.18 276.67 59.88
  C 272.75 59.35 269.07 60.29 264.95 59.39
  A 2.21 1.81 12.3 0 0 262.40 60.69
  Q 262.17 61.79 262.76 63.39
  A 0.83 0.82 -13.8 0 0 263.62 63.91
  L 265.26 63.70
  A 0.31 0.31 0.0 0 1 265.45 64.27
  Q 264.94 64.57 264.16 64.61
  A 0.16 0.07 59.8 0 0 264.18 64.82
  Q 264.19 64.83 264.34 65.01
  A 0.01 0.01 0.0 0 1 264.34 65.03
  Q 261.98 67.53 264.02 66.16
  Z
  M 222.84 72.76
  A 2.04 2.03 55.3 0 0 225.13 73.18
  L 230.41 70.75
  A 1.43 1.41 45.5 0 1 231.61 70.77
  C 236.00 72.87 239.68 75.41 243.48 73.63
  Q 246.29 72.30 248.92 70.78
  A 2.88 2.88 0.0 0 1 250.62 70.40
  Q 252.81 70.59 255.09 71.94
  C 256.61 72.84 257.55 72.96 258.95 71.55
  A 1.55 1.55 0.0 0 0 258.35 68.98
  L 252.11 66.89
  Q 252.06 66.88 252.01 66.87
  C 248.78 66.44 246.66 67.82 243.58 69.47
  A 2.56 2.49 26.3 0 1 242.68 69.76
  Q 238.32 70.31 235.72 68.56
  C 231.26 65.56 227.36 67.65 223.11 70.40
  A 1.54 1.54 0.0 0 0 222.78 72.70
  L 222.84 72.76
  Z"
/>
<path fill="#d6cab5" d="
  M 159.76 23.48
  C 160.01 35.17 159.59 47.69 159.75 58.50
  Q 160.00 74.50 159.99 90.50
  Q 159.99 98.38 159.99 106.74
  Q 159.99 108.37 161.55 111.03
  Q 161.14 111.08 160.98 111.80
  Q 158.66 108.61 158.64 105.37
  Q 158.43 66.81 158.51 28.25
  Q 158.52 26.07 158.79 23.97
  Q 159.11 23.49 159.76 23.48
  Z"
/>
<path fill="#d6cab5" d="
  M 128.67 80.28
  L 127.41 78.91
  Q 128.04 76.13 128.72 73.26
  Q 130.39 66.24 129.64 59.62
  Q 128.93 40.08 116.38 24.85
  A 0.26 0.25 -42.5 0 1 116.40 24.50
  L 116.65 24.24
  A 0.17 0.16 -41.5 0 1 116.89 24.25
  Q 124.03 32.48 127.88 43.06
  Q 134.65 61.70 128.67 80.28
  Z"
/>
<path fill="#ece0cc" d="
  M 86.44 38.59
  Q 82.57 38.92 82.15 38.90
  Q 68.59 38.23 65.47 37.73
  Q 61.32 37.06 58.25 35.67
  A 0.80 0.80 0.0 0 1 58.20 34.24
  C 68.64 28.49 79.18 30.86 89.47 35.66
  A 0.61 0.61 0.0 0 1 89.21 36.83
  L 85.52 36.83
  A 0.21 0.21 0.0 0 0 85.37 37.19
  L 86.53 38.35
  A 0.14 0.14 0.0 0 1 86.44 38.59
  Z"
/>
<path fill="#d59a3f" d="
  M 45.32 46.21
  C 42.91 46.53 41.27 44.71 39.52 43.42
  C 35.61 35.95 43.20 29.14 50.00 34.57
  Q 53.41 37.30 52.73 42.01
  A 2.18 2.16 88.3 0 1 51.03 43.83
  Q 48.16 44.45 45.32 46.21
  Z"
/>
<path fill="#0d1d16" d="
  M 179.19 36.65
  L 176.37 36.46
  A 0.96 0.96 0.0 0 0 175.35 37.42
  L 175.35 90.63
  A 1.16 1.16 0.0 0 0 176.65 91.78
  L 180.63 91.29
  A 1.34 1.34 0.0 0 0 181.80 89.97
  Q 181.85 78.09 181.90 71.54
  Q 181.91 70.64 183.55 67.90
  A 0.33 0.32 -38.8 0 1 184.14 67.96
  L 190.51 87.78
  A 1.40 1.40 0.0 0 0 192.02 88.74
  L 196.33 88.21
  A 1.23 1.23 0.0 0 0 197.33 86.57
  Q 193.54 76.12 189.62 64.19
  C 189.17 62.82 187.86 60.06 188.53 58.55
  Q 196.54 40.59 196.94 39.69
  Q 197.04 39.47 197.02 38.67
  Q 197.07 38.09 197.56 38.77
  A 1.04 1.03 36.8 0 1 197.70 39.72
  Q 195.29 46.20 191.54 54.21
  Q 190.77 55.85 189.86 61.04
  A 0.31 0.31 0.0 0 0 190.27 61.39
  L 196.24 59.14
  A 0.89 0.89 0.0 0 0 196.79 58.54
  C 198.27 52.91 197.57 46.34 202.75 42.53
  Q 199.56 46.59 199.02 51.78
  Q 198.19 59.71 198.70 69.79
  C 199.00 75.80 200.86 87.59 210.20 84.43
  C 215.43 82.65 216.57 76.58 216.70 71.26
  A 1.73 1.73 0.0 0 0 214.97 69.49
  L 213.13 69.49
  A 1.85 1.85 0.0 0 0 211.28 71.31
  C 211.24 74.11 211.08 77.41 208.25 78.33
  A 0.95 0.94 56.8 0 1 207.32 78.13
  Q 205.28 76.24 205.01 73.23
  C 204.38 65.91 204.02 56.57 205.70 48.89
  A 2.63 2.59 -77.7 0 1 208.79 46.87
  Q 209.42 47.00 210.16 48.38
  Q 211.26 50.44 211.06 53.11
  A 1.18 1.18 0.0 0 0 212.38 54.36
  L 215.08 54.02
  A 1.46 1.46 0.0 0 0 216.35 52.74
  Q 217.20 45.22 210.84 40.73
  Q 217.64 42.93 217.61 52.79
  A 1.65 1.65 0.0 0 1 217.19 53.89
  Q 214.81 56.54 210.97 55.08
  Q 209.81 54.64 209.89 53.21
  Q 210.03 50.79 208.78 48.47
  A 0.95 0.94 44.9 0 0 207.11 48.47
  C 206.03 50.48 206.80 52.11 206.23 54.15
  Q 205.70 56.08 205.68 57.00
  Q 205.60 63.11 205.97 72.63
  Q 206.02 73.88 207.51 76.83
  A 0.68 0.68 0.0 0 0 208.47 77.10
  Q 210.08 76.11 209.86 74.43
  Q 209.50 71.68 210.51 69.50
  A 1.30 1.26 -88.4 0 1 211.17 68.86
  Q 214.64 67.43 217.07 69.73
  A 1.61 1.60 19.0 0 1 217.56 70.73
  Q 218.31 78.03 214.09 82.72
  C 208.43 89.02 199.83 84.42 198.60 77.22
  Q 198.06 74.06 197.68 72.28
  A 0.58 0.58 0.0 0 0 196.82 71.90
  L 195.23 72.81
  A 0.79 0.79 0.0 0 0 194.88 73.73
  L 195.41 75.37
  A 0.78 0.77 -8.7 0 0 196.15 75.91
  Q 197.84 75.93 197.67 78.32
  A 0.69 0.69 0.0 0 1 197.12 78.96
  Q 196.02 79.20 196.42 80.79
  Q 197.04 83.25 197.98 85.81
  A 2.49 2.49 0.0 0 1 195.95 89.13
  L 192.36 89.57
  A 3.09 3.08 -12.4 0 1 189.05 87.46
  L 184.67 73.83
  A 0.55 0.55 0.0 0 0 183.60 73.94
  Q 182.51 82.67 183.17 90.63
  A 1.62 1.62 0.0 0 1 181.56 92.39
  L 175.81 92.39
  A 1.48 1.47 -90.0 0 1 174.34 90.91
  L 174.34 36.98
  A 0.95 0.95 0.0 0 1 175.18 36.04
  L 180.96 35.32
  A 0.35 0.34 31.9 0 1 181.12 35.99
  L 179.19 36.65
  Z"
/>
<path fill="#ece0cc" d="
  M 179.19 36.65
  Q 180.31 36.51 181.32 36.81
  A 0.73 0.73 0.0 0 1 181.85 37.51
  L 181.85 56.74
  A 0.29 0.29 0.0 0 0 182.40 56.86
  Q 187.06 47.34 190.37 39.64
  Q 191.13 37.87 192.74 38.07
  C 194.24 38.27 195.64 38.27 197.02 38.67
  Q 197.04 39.47 196.94 39.69
  Q 196.54 40.59 188.53 58.55
  C 187.86 60.06 189.17 62.82 189.62 64.19
  Q 193.54 76.12 197.33 86.57
  A 1.23 1.23 0.0 0 1 196.33 88.21
  L 192.02 88.74
  A 1.40 1.40 0.0 0 1 190.51 87.78
  L 184.14 67.96
  A 0.33 0.32 -38.8 0 0 183.55 67.90
  Q 181.91 70.64 181.90 71.54
  Q 181.85 78.09 181.80 89.97
  A 1.34 1.34 0.0 0 1 180.63 91.29
  L 176.65 91.78
  A 1.16 1.16 0.0 0 1 175.35 90.63
  L 175.35 37.42
  A 0.96 0.96 0.0 0 1 176.37 36.46
  L 179.19 36.65
  Z"
/>
<path fill="#849b9d" d="
  M 116.48 47.71
  L 117.60 52.34
  Q 114.54 52.35 108.28 50.38
  Q 105.80 49.59 102.27 51.59
  A 2.41 2.36 34.1 0 1 100.72 51.87
  Q 96.83 51.26 95.10 52.12
  Q 89.64 54.82 85.18 56.48
  A 3.61 3.50 -55.3 0 1 84.07 56.70
  C 80.21 56.87 79.61 56.37 76.98 54.93
  A 2.80 2.72 58.8 0 0 75.64 54.58
  L 72.04 54.58
  A 3.77 3.67 53.9 0 1 70.81 54.37
  C 67.54 53.20 63.66 52.28 60.29 53.79
  Q 55.05 56.15 49.70 58.31
  Q 47.48 57.25 44.44 57.77
  A 2.44 2.40 -34.2 0 1 42.80 57.47
  L 38.52 54.97
  Q 38.82 54.37 39.74 53.74
  C 42.72 51.62 45.59 51.06 48.65 49.61
  Q 51.53 47.51 54.97 46.49
  Q 55.49 46.34 58.41 43.67
  Q 61.54 40.81 64.63 39.40
  A 3.75 3.74 53.0 0 1 68.65 39.97
  Q 73.65 44.30 79.90 46.69
  A 0.94 0.91 36.4 0 0 80.78 46.57
  C 82.18 45.53 84.15 44.08 85.98 45.52
  A 1.19 1.19 0.0 0 0 87.56 45.43
  Q 91.17 41.76 96.09 39.40
  Q 97.65 38.64 100.04 39.71
  C 102.33 40.72 107.70 44.57 111.96 46.13
  Q 114.25 46.97 116.48 47.71
  Z"
/>
<path fill="#ece0cc" d="
  M 210.84 40.73
  Q 217.20 45.22 216.35 52.74
  A 1.46 1.46 0.0 0 1 215.08 54.02
  L 212.38 54.36
  A 1.18 1.18 0.0 0 1 211.06 53.11
  Q 211.26 50.44 210.16 48.38
  Q 209.42 47.00 208.79 46.87
  A 2.63 2.59 -77.7 0 0 205.70 48.89
  C 204.02 56.57 204.38 65.91 205.01 73.23
  Q 205.28 76.24 207.32 78.13
  A 0.95 0.94 56.8 0 0 208.25 78.33
  C 211.08 77.41 211.24 74.11 211.28 71.31
  A 1.85 1.85 0.0 0 1 213.13 69.49
  L 214.97 69.49
  A 1.73 1.73 0.0 0 1 216.70 71.26
  C 216.57 76.58 215.43 82.65 210.20 84.43
  C 200.86 87.59 199.00 75.80 198.70 69.79
  Q 198.19 59.71 199.02 51.78
  Q 199.56 46.59 202.75 42.53
  Q 205.86 39.68 210.84 40.73
  Z"
/>
<path fill="#ece0cc" d="
  M 39.52 43.42
  C 41.27 44.71 42.91 46.53 45.32 46.21
  Q 47.23 47.47 48.65 49.61
  C 45.59 51.06 42.72 51.62 39.74 53.74
  Q 37.47 48.53 31.41 47.69
  A 0.32 0.31 36.7 0 1 31.32 47.09
  L 39.52 43.42
  Z"
/>
<path fill="#ece0cc" d="
  M 129.64 59.62
  Q 130.39 66.24 128.72 73.26
  Q 128.04 76.13 127.41 78.91
  Q 121.87 97.07 107.63 108.04
  C 97.81 115.59 84.14 120.30 71.76 120.32
  Q 47.25 120.36 28.60 103.14
  Q 26.42 101.12 24.11 98.07
  A 0.42 0.42 0.0 0 0 23.36 98.23
  L 23.25 98.74
  Q 13.00 85.32 10.84 67.45
  Q 9.86 59.30 11.37 53.77
  A 0.14 0.14 0.0 0 1 11.64 53.77
  C 11.74 54.20 12.01 54.94 12.02 55.43
  Q 12.25 65.06 13.28 68.19
  Q 13.83 69.83 16.78 79.62
  Q 20.04 90.47 28.50 95.87
  L 30.73 98.27
  Q 30.38 98.27 30.06 97.97
  Q 29.22 97.20 29.95 98.12
  Q 30.40 98.68 30.75 99.38
  Q 31.64 101.18 35.31 104.10
  C 51.32 116.85 70.30 120.44 89.88 113.55
  C 103.82 108.64 116.88 97.01 122.24 82.96
  Q 127.18 70.02 126.91 60.71
  Q 126.73 54.62 124.12 44.29
  A 0.34 0.34 0.0 0 1 124.36 43.88
  L 124.41 43.87
  A 0.30 0.30 0.0 0 1 124.77 44.06
  C 125.62 46.36 126.30 48.19 126.76 50.93
  Q 127.56 55.53 129.64 59.62
  Z"
/>
<path fill="#467073" d="
  M 117.60 52.34
  L 118.57 58.23
  L 108.21 59.55
  A 0.33 0.21 -31.7 0 1 108.10 59.55
  L 107.21 59.44
  A 1.82 1.81 -54.3 0 0 106.18 59.61
  C 104.48 60.44 102.66 59.77 101.02 60.89
  Q 100.98 60.92 98.36 61.62
  Q 96.77 62.05 91.84 64.25
  A 4.53 4.51 28.7 0 1 90.63 64.60
  C 86.31 65.18 83.23 66.74 79.48 68.88
  A 5.18 5.15 32.2 0 1 76.58 69.53
  C 71.97 69.20 67.75 65.99 64.46 65.28
  Q 63.00 64.96 59.16 62.94
  Q 57.07 61.85 52.64 60.90
  Q 50.68 60.49 49.70 58.31
  Q 55.05 56.15 60.29 53.79
  C 63.66 52.28 67.54 53.20 70.81 54.37
  A 3.77 3.67 53.9 0 0 72.04 54.58
  L 75.64 54.58
  A 2.80 2.72 58.8 0 1 76.98 54.93
  C 79.61 56.37 80.21 56.87 84.07 56.70
  A 3.61 3.50 -55.3 0 0 85.18 56.48
  Q 89.64 54.82 95.10 52.12
  Q 96.83 51.26 100.72 51.87
  A 2.41 2.36 34.1 0 0 102.27 51.59
  Q 105.80 49.59 108.28 50.38
  Q 114.54 52.35 117.60 52.34
  Z"
/>
<path fill="#0d1d16" d="
  M 243.37 53.77
  L 246.80 51.52
  A 1.75 1.74 -63.7 0 1 247.56 51.26
  Q 252.33 50.89 253.67 51.80
  Q 255.19 52.85 258.79 54.62
  A 1.51 1.51 0.0 0 1 259.29 56.94
  L 259.25 56.99
  A 2.07 2.07 0.0 0 1 256.59 57.63
  L 252.40 55.43
  A 4.38 4.36 -44.6 0 0 248.38 55.41
  Q 245.01 57.14 242.61 58.04
  Q 240.38 58.88 237.73 57.59
  Q 236.28 56.88 232.17 54.79
  A 1.71 1.70 -37.9 0 0 231.04 54.65
  Q 227.99 55.33 225.26 57.37
  A 1.80 1.79 56.7 0 1 222.64 56.82
  L 222.42 56.45
  A 1.57 1.57 0.0 0 1 222.80 54.44
  Q 226.57 51.44 230.31 50.75
  A 5.04 5.03 -35.2 0 1 233.75 51.34
  L 238.21 53.91
  A 4.92 4.91 -46.5 0 0 243.37 53.77
  Z
  M 258.42 55.05
  C 257.44 54.87 256.39 54.64 255.63 54.03
  C 251.69 50.88 248.10 51.85 244.35 54.30
  C 237.87 58.52 234.70 49.46 227.80 52.59
  Q 226.61 53.13 223.18 55.23
  A 0.45 0.45 0.0 0 0 223.29 56.04
  L 223.97 56.24
  A 1.17 1.16 35.4 0 0 224.95 56.08
  Q 228.35 53.73 231.43 53.76
  A 2.72 2.72 0.0 0 1 232.71 54.08
  Q 237.33 56.51 237.79 56.69
  C 243.34 58.85 244.82 54.78 250.26 53.92
  C 252.68 53.53 257.23 58.13 258.78 55.95
  A 0.58 0.57 -67.0 0 0 258.42 55.05
  Z"
/>
<path fill="#f2eadd" d="
  M 258.42 55.05
  A 0.58 0.57 -67.0 0 1 258.78 55.95
  C 257.23 58.13 252.68 53.53 250.26 53.92
  C 244.82 54.78 243.34 58.85 237.79 56.69
  Q 237.33 56.51 232.71 54.08
  A 2.72 2.72 0.0 0 0 231.43 53.76
  Q 228.35 53.73 224.95 56.08
  A 1.17 1.16 35.4 0 1 223.97 56.24
  L 223.29 56.04
  A 0.45 0.45 0.0 0 1 223.18 55.23
  Q 226.61 53.13 227.80 52.59
  C 234.70 49.46 237.87 58.52 244.35 54.30
  C 248.10 51.85 251.69 50.88 255.63 54.03
  C 256.39 54.64 257.44 54.87 258.42 55.05
  Z"
/>
<path fill="#183a30" d="
  M 38.52 54.97
  L 42.80 57.47
  A 2.44 2.40 -34.2 0 0 44.44 57.77
  Q 47.48 57.25 49.70 58.31
  Q 50.68 60.49 52.64 60.90
  Q 57.07 61.85 59.16 62.94
  Q 63.00 64.96 64.46 65.28
  C 67.75 65.99 71.97 69.20 76.58 69.53
  A 5.18 5.15 32.2 0 0 79.48 68.88
  C 83.23 66.74 86.31 65.18 90.63 64.60
  A 4.53 4.51 28.7 0 0 91.84 64.25
  Q 96.77 62.05 98.36 61.62
  Q 100.98 60.92 101.02 60.89
  C 102.66 59.77 104.48 60.44 106.18 59.61
  A 1.82 1.81 -54.3 0 1 107.21 59.44
  L 108.10 59.55
  A 0.33 0.21 -31.7 0 0 108.21 59.55
  L 118.57 58.23
  Q 119.19 63.72 118.16 69.65
  A 0.79 0.77 -89.3 0 1 117.53 70.28
  Q 117.20 70.34 116.85 70.27
  L 90.18 70.42
  L 24.46 70.57
  A 0.71 0.70 85.4 0 1 23.75 69.96
  Q 22.71 62.97 23.54 56.08
  Q 27.16 55.70 30.10 54.10
  A 1.53 1.51 34.4 0 1 31.04 53.93
  L 38.52 54.97
  Z"
/>
<path fill="#849b9d" d="
  M 312.46 58.05
  Q 315.16 61.29 312.89 65.16
  Q 311.39 67.73 308.51 68.67
  Q 288.37 75.19 288.20 75.25
  Q 277.81 78.81 175.58 113.59
  C 169.57 115.64 165.31 116.42 160.98 111.80
  Q 161.14 111.08 161.55 111.03
  Q 162.22 111.85 163.25 112.40
  C 167.39 115.07 172.14 113.47 176.87 111.84
  Q 229.45 93.71 233.55 92.29
  Q 262.08 82.39 269.45 79.99
  C 282.76 75.67 293.67 71.42 305.66 67.74
  Q 310.01 66.40 311.35 64.50
  Q 313.03 62.10 312.46 58.05
  Z"
/>
<path fill="#0d1d16" d="
  M 252.40 63.06
  Q 250.20 62.14 247.47 63.52
  Q 242.99 65.80 242.88 65.85
  A 5.06 5.06 0.0 0 1 238.61 66.00
  L 231.63 63.03
  A 0.51 0.44 -30.8 0 0 231.46 63.00
  Q 228.39 63.03 225.86 65.05
  A 2.16 2.16 0.0 0 1 223.00 64.92
  L 222.88 64.81
  A 1.55 1.54 -41.7 0 1 223.02 62.46
  Q 227.59 58.97 232.03 59.08
  A 3.32 3.20 -29.8 0 1 233.42 59.43
  C 236.64 61.07 238.85 62.53 241.75 62.39
  A 2.51 2.35 28.5 0 0 242.67 62.15
  C 245.07 60.98 247.90 58.74 251.51 58.84
  A 0.44 0.29 -22.8 0 1 251.67 58.87
  L 258.80 61.58
  A 1.53 1.53 0.0 0 1 259.60 63.74
  L 259.52 63.88
  A 2.06 2.05 -67.0 0 1 256.94 64.93
  Q 256.53 64.78 252.40 63.06
  Z
  M 258.42 62.61
  C 257.44 62.45 256.39 62.25 255.62 61.65
  C 251.62 58.59 248.05 59.64 244.36 62.16
  C 237.98 66.51 234.63 57.53 227.81 60.81
  Q 226.63 61.37 223.25 63.54
  A 0.45 0.45 0.0 0 0 223.38 64.34
  L 224.06 64.53
  A 1.17 1.16 34.2 0 0 225.03 64.35
  Q 228.38 61.93 231.45 61.90
  A 2.72 2.72 0.0 0 1 232.74 62.19
  Q 237.40 64.52 237.86 64.69
  C 243.45 66.72 244.84 62.63 250.25 61.66
  C 252.66 61.22 257.30 65.71 258.80 63.50
  A 0.57 0.57 0.0 0 0 258.42 62.61
  Z"
/>
<path fill="#0d1d16" d="
  M 264.57 67.02
  Q 266.80 66.16 270.22 63.46
  Q 271.27 62.64 273.75 62.40
  A 2.41 2.41 0.0 0 1 274.67 62.50
  C 278.83 63.78 280.69 63.00 284.92 62.21
  A 0.29 0.29 0.0 0 0 285.02 61.67
  L 283.78 60.95
  A 1.55 1.54 48.6 0 0 282.42 60.86
  Q 278.42 62.47 275.03 60.87
  A 3.11 3.06 -37.5 0 0 273.10 60.63
  L 270.85 61.08
  A 4.91 4.68 41.8 0 1 269.31 61.13
  L 264.42 60.51
  A 1.11 1.11 0.0 0 0 263.18 61.47
  L 263.14 61.83
  A 0.73 0.72 89.1 0 0 263.97 62.64
  Q 266.12 62.30 268.11 62.86
  A 0.75 0.75 0.0 0 1 268.22 64.27
  L 264.02 66.16
  Q 261.98 67.53 264.34 65.03
  A 0.01 0.01 0.0 0 0 264.34 65.01
  Q 264.19 64.83 264.18 64.82
  A 0.16 0.07 59.8 0 1 264.16 64.61
  Q 264.94 64.57 265.45 64.27
  A 0.31 0.31 0.0 0 0 265.26 63.70
  L 263.62 63.91
  A 0.83 0.82 -13.8 0 1 262.76 63.39
  Q 262.17 61.79 262.40 60.69
  A 2.21 1.81 12.3 0 1 264.95 59.39
  C 269.07 60.29 272.75 59.35 276.67 59.88
  C 278.94 60.18 281.72 59.41 284.40 59.97
  A 1.86 1.85 -47.4 0 1 284.55 63.56
  Q 282.85 64.07 278.62 64.46
  C 276.82 64.63 274.59 63.50 272.42 63.59
  A 0.44 0.41 28.2 0 0 272.20 63.65
  L 264.80 67.87
  A 0.49 0.49 0.0 0 1 264.09 67.28
  Q 264.11 67.18 264.57 67.02
  Z"
/>
<path fill="#f2eadd" d="
  M 258.42 62.61
  A 0.57 0.57 0.0 0 1 258.80 63.50
  C 257.30 65.71 252.66 61.22 250.25 61.66
  C 244.84 62.63 243.45 66.72 237.86 64.69
  Q 237.40 64.52 232.74 62.19
  A 2.72 2.72 0.0 0 0 231.45 61.90
  Q 228.38 61.93 225.03 64.35
  A 1.17 1.16 34.2 0 1 224.06 64.53
  L 223.38 64.34
  A 0.45 0.45 0.0 0 1 223.25 63.54
  Q 226.63 61.37 227.81 60.81
  C 234.63 57.53 237.98 66.51 244.36 62.16
  C 248.05 59.64 251.62 58.59 255.62 61.65
  C 256.39 62.25 257.44 62.45 258.42 62.61
  Z"
/>
<path fill="#f2eadd" d="
  M 264.57 67.02
  Q 264.42 66.94 264.27 66.90
  A 0.36 0.35 4.5 0 1 263.99 66.58
  Q 263.97 66.41 264.02 66.16
  L 268.22 64.27
  A 0.75 0.75 0.0 0 0 268.11 62.86
  Q 266.12 62.30 263.97 62.64
  A 0.73 0.72 89.1 0 1 263.14 61.83
  L 263.18 61.47
  A 1.11 1.11 0.0 0 1 264.42 60.51
  L 269.31 61.13
  A 4.91 4.68 41.8 0 0 270.85 61.08
  L 273.10 60.63
  A 3.11 3.06 -37.5 0 1 275.03 60.87
  Q 278.42 62.47 282.42 60.86
  A 1.55 1.54 48.6 0 1 283.78 60.95
  L 285.02 61.67
  A 0.29 0.29 0.0 0 1 284.92 62.21
  C 280.69 63.00 278.83 63.78 274.67 62.50
  A 2.41 2.41 0.0 0 0 273.75 62.40
  Q 271.27 62.64 270.22 63.46
  Q 266.80 66.16 264.57 67.02
  Z"
/>
<path fill="#0d1d16" d="
  M 222.84 72.76
  L 222.78 72.70
  A 1.54 1.54 0.0 0 1 223.11 70.40
  C 227.36 67.65 231.26 65.56 235.72 68.56
  Q 238.32 70.31 242.68 69.76
  A 2.56 2.49 26.3 0 0 243.58 69.47
  C 246.66 67.82 248.78 66.44 252.01 66.87
  Q 252.06 66.88 252.11 66.89
  L 258.35 68.98
  A 1.55 1.55 0.0 0 1 258.95 71.55
  C 257.55 72.96 256.61 72.84 255.09 71.94
  Q 252.81 70.59 250.62 70.40
  A 2.88 2.88 0.0 0 0 248.92 70.78
  Q 246.29 72.30 243.48 73.63
  C 239.68 75.41 236.00 72.87 231.61 70.77
  A 1.43 1.41 45.5 0 0 230.41 70.75
  L 225.13 73.18
  A 2.04 2.03 55.3 0 1 222.84 72.76
  Z
  M 257.80 69.70
  C 257.04 69.69 256.23 69.62 255.52 69.17
  C 247.63 64.23 245.66 72.69 239.07 71.23
  A 5.83 5.46 62.2 0 1 238.00 70.86
  Q 237.39 70.56 233.66 68.68
  C 230.11 66.89 226.92 69.16 223.36 71.36
  A 0.43 0.43 0.0 0 0 223.43 72.13
  L 224.07 72.37
  A 0.93 0.91 38.9 0 0 224.90 72.29
  Q 227.77 70.51 230.60 69.93
  A 3.06 3.00 -40.5 0 1 232.22 70.04
  C 236.24 71.45 238.78 74.53 244.12 72.35
  C 245.89 71.62 249.36 68.58 251.77 69.55
  C 254.70 70.74 256.55 71.87 258.09 71.25
  A 0.81 0.80 34.4 0 0 257.80 69.70
  Z"
/>
<path fill="#f2eadd" d="
  M 257.80 69.70
  A 0.81 0.80 34.4 0 1 258.09 71.25
  C 256.55 71.87 254.70 70.74 251.77 69.55
  C 249.36 68.58 245.89 71.62 244.12 72.35
  C 238.78 74.53 236.24 71.45 232.22 70.04
  A 3.06 3.00 -40.5 0 0 230.60 69.93
  Q 227.77 70.51 224.90 72.29
  A 0.93 0.91 38.9 0 1 224.07 72.37
  L 223.43 72.13
  A 0.43 0.43 0.0 0 1 223.36 71.36
  C 226.92 69.16 230.11 66.89 233.66 68.68
  Q 237.39 70.56 238.00 70.86
  A 5.83 5.46 62.2 0 0 239.07 71.23
  C 245.66 72.69 247.63 64.23 255.52 69.17
  C 256.23 69.62 257.04 69.69 257.80 69.70
  Z"
/>
<path fill="#d6cab5" d="
  M 116.85 70.27
  Q 116.50 70.81 117.42 71.54
  L 90.65 71.79
  Q 90.91 70.75 90.18 70.42
  L 116.85 70.27
  Z"
/>
<path fill="#0b3d41" d="
  M 117.42 71.54
  Q 117.58 71.68 117.70 71.97
  A 0.93 0.88 43.4 0 1 117.73 72.51
  Q 115.03 83.19 108.49 91.52
  Q 106.11 94.54 100.09 99.51
  Q 91.33 106.75 78.51 108.72
  Q 59.29 111.68 42.81 100.45
  Q 41.28 99.41 39.48 97.26
  Q 39.89 96.64 39.84 97.04
  Q 51.01 95.59 62.36 96.56
  C 64.30 96.73 65.77 95.73 67.17 95.95
  C 70.50 96.46 73.83 95.64 77.14 95.88
  A 0.52 0.52 0.0 0 0 77.69 95.42
  L 77.71 95.26
  A 0.51 0.50 -81.3 0 0 77.31 94.71
  Q 74.68 94.22 72.04 94.69
  C 72.12 91.22 68.85 89.78 66.14 88.66
  Q 67.57 88.29 65.25 87.75
  L 71.07 82.80
  L 85.96 82.91
  A 0.35 0.34 -9.1 0 0 86.29 82.46
  L 86.06 81.75
  A 0.39 0.38 -4.3 0 0 85.73 81.48
  Q 81.48 81.05 77.63 82.64
  A 0.84 0.83 50.5 0 1 76.83 82.56
  Q 74.87 81.25 72.81 81.63
  Q 72.72 81.05 72.37 80.64
  A 0.36 0.36 0.0 0 1 72.53 80.06
  L 74.00 79.59
  A 0.75 0.72 -1.1 0 0 74.49 79.10
  Q 74.83 78.05 76.27 77.88
  Q 78.59 77.61 80.96 77.50
  L 101.89 77.58
  A 0.38 0.38 0.0 0 0 102.07 76.87
  Q 100.79 76.17 99.00 76.25
  C 86.04 76.86 70.59 75.93 59.43 76.44
  Q 57.85 76.51 55.76 76.35
  Q 52.99 76.13 46.96 76.59
  Q 46.46 76.49 45.69 76.80
  Q 40.35 75.74 35.05 76.82
  Q 30.50 75.23 25.64 76.53
  L 24.39 72.69
  A 0.56 0.56 0.0 0 1 24.91 71.96
  Q 38.99 71.75 53.00 72.47
  Q 63.76 73.02 90.65 71.79
  L 117.42 71.54
  Z
  M 112.19 77.66
  L 112.21 76.74
  A 0.22 0.22 0.0 0 0 111.99 76.51
  L 109.28 76.47
  A 5.79 0.53 1.0 0 0 103.48 76.89
  L 103.48 77.19
  A 5.79 0.53 1.0 0 0 109.26 77.82
  L 111.97 77.87
  A 0.22 0.22 0.0 0 0 112.19 77.66
  Z
  M 88.46 82.12
  Q 88.45 82.97 97.26 82.92
  Q 97.77 82.92 98.57 82.65
  A 2.07 2.00 -50.0 0 1 99.51 82.55
  Q 106.48 83.42 106.49 82.30
  Q 106.50 81.19 99.51 81.91
  A 2.07 2.00 51.2 0 1 98.58 81.79
  Q 97.78 81.51 97.27 81.50
  Q 88.47 81.26 88.46 82.12
  Z
  M 89.08 88.57
  L 89.06 87.69
  A 0.16 0.16 0.0 0 0 88.89 87.53
  L 82.68 87.69
  A 13.67 0.46 -1.5 0 0 69.03 88.51
  L 69.04 88.79
  A 13.67 0.46 -1.5 0 0 82.71 88.89
  L 88.92 88.73
  A 0.16 0.16 0.0 0 0 89.08 88.57
  Z
  M 100.3922 88.1732
  A 0.26 0.26 0.0 0 0 100.1363 87.9091
  L 92.6172 87.7910
  A 0.26 0.26 0.0 0 0 92.3532 88.0469
  L 92.3478 88.3868
  A 0.26 0.26 0.0 0 0 92.6037 88.6509
  L 100.1228 88.7690
  A 0.26 0.26 0.0 0 0 100.3868 88.5131
  L 100.3922 88.1732
  Z
  M 104.6795 94.2789
  A 0.27 0.27 0.0 0 0 104.4086 94.0098
  L 87.1087 94.0702
  A 0.27 0.27 0.0 0 0 86.8396 94.3411
  L 86.8405 94.6011
  A 0.27 0.27 0.0 0 0 87.1114 94.8702
  L 104.4113 94.8098
  A 0.27 0.27 0.0 0 0 104.6804 94.5389
  L 104.6795 94.2789
  Z
  M 60.76 101.99
  Q 61.76 102.02 62.74 101.95
  Q 67.95 101.61 73.20 101.72
  A 0.30 0.30 0.0 0 0 73.27 101.13
  Q 68.37 99.97 63.23 101.20
  Q 63.20 101.21 61.00 101.15
  Q 59.99 101.12 59.01 101.18
  Q 53.80 101.52 48.55 101.41
  A 0.30 0.30 0.0 0 0 48.48 102.00
  Q 53.38 103.16 58.52 101.93
  Q 58.56 101.92 60.76 101.99
  Z
  M 85.4693 101.9963
  A 0.56 0.56 0.0 0 0 84.9232 101.4228
  L 78.1652 101.2576
  A 0.56 0.56 0.0 0 0 77.5917 101.8037
  L 77.5907 101.8437
  A 0.56 0.56 0.0 0 0 78.1368 102.4172
  L 84.8948 102.5824
  A 0.56 0.56 0.0 0 0 85.4683 102.0363
  L 85.4693 101.9963
  Z"
/>
<path fill="#1a4f51" d="
  M 35.05 76.82
  Q 40.34 78.01 45.69 76.80
  Q 46.46 76.49 46.96 76.59
  Q 50.71 78.24 54.79 77.31
  Q 57.39 76.72 58.81 76.92
  Q 64.74 77.76 70.68 77.37
  C 73.81 77.17 77.53 77.50 80.96 77.50
  Q 78.59 77.61 76.27 77.88
  Q 74.83 78.05 74.49 79.10
  A 0.75 0.72 -1.1 0 1 74.00 79.59
  L 72.53 80.06
  A 0.36 0.36 0.0 0 0 72.37 80.64
  Q 72.72 81.05 72.81 81.63
  Q 64.48 82.35 57.75 82.22
  Q 57.55 82.21 57.40 82.27
  A 0.30 0.30 0.0 0 0 57.50 82.86
  L 71.07 82.80
  L 65.25 87.75
  Q 63.09 87.83 60.92 88.70
  A 2.29 2.20 35.8 0 1 59.94 88.84
  Q 58.14 88.69 55.90 87.85
  A 2.17 2.10 49.4 0 0 54.74 87.74
  L 50.06 88.55
  A 0.90 0.77 -38.4 0 1 49.77 88.54
  Q 49.33 88.45 47.01 87.53
  Q 45.75 87.03 42.33 88.28
  A 1.09 0.87 29.7 0 1 42.01 88.33
  L 32.49 88.33
  A 2.32 2.31 74.9 0 1 30.49 87.18
  L 29.21 84.96
  A 1.07 1.07 0.0 0 1 30.14 83.35
  L 53.96 83.35
  A 0.30 0.29 -41.4 0 0 54.00 82.76
  Q 46.13 81.83 40.27 81.92
  Q 39.41 81.93 37.88 82.67
  A 1.17 1.14 -57.1 0 1 37.31 82.80
  L 28.58 82.49
  A 0.77 0.76 79.4 0 1 27.89 82.01
  L 25.64 76.53
  Q 30.50 75.23 35.05 76.82
  Z"
/>
<path fill="#b1aa9b" d="
  M 45.69 76.80
  Q 40.34 78.01 35.05 76.82
  Q 40.35 75.74 45.69 76.80
  Z"
/>
<path fill="#b1aa9b" d="
  M 80.96 77.50
  C 77.53 77.50 73.81 77.17 70.68 77.37
  Q 64.74 77.76 58.81 76.92
  Q 57.39 76.72 54.79 77.31
  Q 50.71 78.24 46.96 76.59
  Q 52.99 76.13 55.76 76.35
  Q 57.85 76.51 59.43 76.44
  C 70.59 75.93 86.04 76.86 99.00 76.25
  Q 100.79 76.17 102.07 76.87
  A 0.38 0.38 0.0 0 1 101.89 77.58
  L 80.96 77.50
  Z"
/>
<path fill="#b1aa9b" d="
  M 112.19 77.66
  A 0.22 0.22 0.0 0 1 111.97 77.87
  L 109.26 77.82
  A 5.79 0.53 1.0 0 1 103.48 77.19
  L 103.48 76.89
  A 5.79 0.53 1.0 0 1 109.28 76.47
  L 111.99 76.51
  A 0.22 0.22 0.0 0 1 112.21 76.74
  L 112.19 77.66
  Z"
/>
<path fill="#b1aa9b" d="
  M 127.41 78.91
  L 128.67 80.28
  Q 124.64 92.69 117.46 100.95
  Q 100.28 120.68 72.64 122.09
  C 69.12 122.26 65.98 121.65 61.15 121.05
  Q 52.97 120.02 44.18 115.76
  Q 41.36 114.38 32.74 108.51
  Q 29.18 106.07 23.25 98.74
  L 23.36 98.23
  A 0.42 0.42 0.0 0 1 24.11 98.07
  Q 26.42 101.12 28.60 103.14
  Q 47.25 120.36 71.76 120.32
  C 84.14 120.30 97.81 115.59 107.63 108.04
  Q 121.87 97.07 127.41 78.91
  Z"
/>
<path fill="#d6cab5" d="
  M 106.49 82.30
  Q 106.48 83.42 99.51 82.55
  A 2.07 2.00 -50.0 0 0 98.57 82.65
  Q 97.77 82.92 97.26 82.92
  Q 88.45 82.97 88.46 82.12
  Q 88.47 81.26 97.27 81.50
  Q 97.78 81.51 98.58 81.79
  A 2.07 2.00 51.2 0 0 99.51 81.91
  Q 106.50 81.19 106.49 82.30
  Z"
/>
<path fill="#f2eadd" d="
  M 72.81 81.63
  Q 74.87 81.25 76.83 82.56
  A 0.84 0.83 50.5 0 0 77.63 82.64
  Q 81.48 81.05 85.73 81.48
  A 0.39 0.38 -4.3 0 1 86.06 81.75
  L 86.29 82.46
  A 0.35 0.34 -9.1 0 1 85.96 82.91
  L 71.07 82.80
  L 57.50 82.86
  A 0.30 0.30 0.0 0 1 57.40 82.27
  Q 57.55 82.21 57.75 82.22
  Q 64.48 82.35 72.81 81.63
  Z"
/>
<path fill="#f2eadd" d="
  M 89.08 88.57
  A 0.16 0.16 0.0 0 1 88.92 88.73
  L 82.71 88.89
  A 13.67 0.46 -1.5 0 1 69.04 88.79
  L 69.03 88.51
  A 13.67 0.46 -1.5 0 1 82.68 87.69
  L 88.89 87.53
  A 0.16 0.16 0.0 0 1 89.06 87.69
  L 89.08 88.57
  Z"
/>
<rect fill="#849b9d" x="-4.02" y="-0.43" transform="translate(96.37,88.28) rotate(0.9)" width="8.04" height="0.86" rx="0.26"/>
<path fill="#1a4f51" d="
  M 66.14 88.66
  C 68.85 89.78 72.12 91.22 72.04 94.69
  Q 65.49 95.58 62.98 95.36
  Q 53.99 94.59 43.06 95.29
  Q 40.71 95.44 39.55 95.77
  A 0.47 0.47 0.0 0 0 39.35 96.56
  L 39.84 97.04
  Q 39.89 96.64 39.48 97.26
  L 32.45 90.31
  A 0.64 0.64 0.0 0 1 32.89 89.21
  L 47.18 88.90
  A 0.58 0.21 25.1 0 1 47.29 88.91
  L 49.98 89.37
  A 1.55 1.44 41.9 0 0 50.55 89.36
  Q 54.79 88.47 59.26 89.39
  A 3.07 3.04 42.3 0 0 60.76 89.33
  Q 63.52 88.49 66.14 88.66
  Z"
/>
<rect fill="#ece0cc" x="-8.92" y="-0.40" transform="translate(95.76,94.44) rotate(-0.2)" width="17.84" height="0.80" rx="0.27"/>
<path fill="#f2eadd" d="
  M 39.84 97.04
  L 39.35 96.56
  A 0.47 0.47 0.0 0 1 39.55 95.77
  Q 40.71 95.44 43.06 95.29
  Q 53.99 94.59 62.98 95.36
  Q 65.49 95.58 72.04 94.69
  Q 74.68 94.22 77.31 94.71
  A 0.51 0.50 -81.3 0 1 77.71 95.26
  L 77.69 95.42
  A 0.52 0.52 0.0 0 1 77.14 95.88
  C 73.83 95.64 70.50 96.46 67.17 95.95
  C 65.77 95.73 64.30 96.73 62.36 96.56
  Q 51.01 95.59 39.84 97.04
  Z"
/>
<path fill="#183a30" d="
  M 111.12 95.99
  Q 111.29 96.16 109.53 97.97
  Q 107.77 99.78 107.60 99.61
  Q 107.42 99.44 109.18 97.63
  Q 110.94 95.82 111.12 95.99
  Z"
/>
<path fill="#d6cab5" d="
  M 60.76 101.99
  Q 58.56 101.92 58.52 101.93
  Q 53.38 103.16 48.48 102.00
  A 0.30 0.30 0.0 0 1 48.55 101.41
  Q 53.80 101.52 59.01 101.18
  Q 59.99 101.12 61.00 101.15
  Q 63.20 101.21 63.23 101.20
  Q 68.37 99.97 73.27 101.13
  A 0.30 0.30 0.0 0 1 73.20 101.72
  Q 67.95 101.61 62.74 101.95
  Q 61.76 102.02 60.76 101.99
  Z"
/>
<rect fill="#849b9d" x="-3.94" y="-0.58" transform="translate(81.53,101.92) rotate(1.4)" width="7.88" height="1.16" rx="0.56"/>
</svg>
