<?xml version="1.0" encoding="UTF-8" standalone="no"?>
<!DOCTYPE svg PUBLIC "-//W3C//DTD SVG 1.1//EN" "http://www.w3.org/Graphics/SVG/1.1/DTD/svg11.dtd">
<svg xmlns="http://www.w3.org/2000/svg" version="1.1" viewBox="0.00 0.00 383.00 312.00">
<g stroke-width="2.00" fill="none" stroke-linecap="butt">
<path stroke="#8a998a" vector-effect="non-scaling-stroke" d="
  M 50.47 307.77
  Q 55.07 304.39 61.18 299.19
  Q 70.58 291.20 81.02 287.52
  C 85.71 285.87 91.56 285.87 96.13 286.37
  C 103.84 287.21 112.16 285.64 119.05 282.65
  C 124.54 280.26 130.67 275.82 135.98 274.00
  Q 144.77 270.98 149.00 270.70
  Q 159.36 270.03 164.26 269.57
  Q 176.15 268.47 188.08 263.99
  Q 190.65 263.03 201.44 257.35
  C 211.30 252.17 220.90 249.16 231.81 246.76
  Q 240.47 244.86 243.70 243.93
  Q 266.71 237.26 284.77 221.76
  Q 294.80 213.15 301.18 206.19
  Q 304.12 202.99 300.73 200.48
  C 296.13 197.07 292.23 194.10 288.60 189.47
  Q 284.12 183.74 279.35 178.53
  A 1.26 1.26 0.0 0 1 279.10 177.24
  C 282.27 169.04 284.76 164.11 287.21 156.69
  C 290.87 145.64 296.77 135.50 303.35 125.46
  A 2.48 2.46 -28.5 0 0 303.76 124.10
  L 303.76 123.39
  A 1.45 1.42 68.7 0 1 304.20 122.35
  Q 306.11 120.53 308.05 118.78
  Q 322.33 105.96 327.02 87.53
  Q 327.90 84.06 330.00 74.24
  Q 333.07 59.92 342.13 48.39
  Q 346.39 42.97 351.27 38.13
  C 352.73 36.68 351.65 35.22 350.04 34.52
  C 342.09 31.04 333.09 30.67 324.53 32.36
  Q 324.49 32.36 308.55 35.69
  Q 286.45 40.30 266.13 34.75
  Q 262.10 33.65 252.17 29.83
  Q 244.30 26.81 238.04 25.23
  C 226.16 22.23 215.71 23.01 201.26 23.56
  Q 197.83 23.69 189.26 22.41
  Q 183.44 21.54 177.51 19.80
  Q 162.21 15.31 155.81 13.20
  Q 130.37 4.81 103.03 9.34
  C 86.70 12.04 73.37 14.48 59.92 19.62
  Q 49.65 23.54 48.27 23.94
  C 45.71 24.69 43.88 26.41 43.95 28.92
  Q 44.66 57.51 45.45 85.26
  C 46.15 109.66 48.21 134.07 49.60 158.37
  Q 50.05 166.19 49.89 173.50
  C 49.49 192.43 49.57 207.59 48.71 224.99
  Q 48.00 239.42 48.10 244.41
  Q 48.85 282.22 48.81 288.25
  Q 48.70 302.77 48.58 306.78
  A 1.19 1.18 -17.3 0 0 50.47 307.77"
/>
<path stroke="#8a998a" vector-effect="non-scaling-stroke" d="
  M 336.62 41.43
  A 0.48 0.47 -66.6 0 0 336.31 40.64
  Q 331.30 40.19 325.54 41.39
  Q 324.74 41.55 307.88 44.89
  Q 297.55 46.93 290.05 46.98
  C 277.79 47.05 265.97 45.10 254.14 40.53
  C 244.42 36.76 233.62 32.77 222.35 32.26
  Q 218.32 32.08 208.17 32.74
  Q 200.66 33.23 193.99 32.53
  C 179.15 30.97 160.42 24.34 149.81 21.45
  Q 139.08 18.51 127.12 17.41
  Q 119.31 16.69 108.45 18.30
  Q 88.41 21.27 81.28 23.00
  Q 68.29 26.15 55.98 31.47
  Q 53.95 32.35 53.99 35.02
  Q 54.34 55.96 55.73 93.23
  C 56.36 110.34 58.47 132.11 59.01 149.00
  Q 59.66 169.61 58.99 189.31
  A 0.40 0.39 -11.4 0 0 59.56 189.68
  Q 59.97 189.47 60.15 189.15
  Q 66.89 177.09 76.83 166.62
  C 95.67 146.77 124.36 139.96 150.80 143.11
  Q 162.07 144.45 170.50 144.56
  Q 184.35 144.74 197.22 140.68
  Q 200.59 139.62 213.67 135.17
  C 223.04 131.98 235.58 131.66 246.53 131.91
  Q 251.90 132.04 257.58 131.29
  C 278.65 128.53 301.84 118.69 312.41 98.95
  Q 317.79 88.90 319.01 81.54
  C 321.46 66.68 326.82 52.32 336.62 41.43"
/>
<path stroke="#8a998a" vector-effect="non-scaling-stroke" d="
  M 289.05 131.49
  Q 270.01 140.39 250.09 141.24
  Q 247.50 141.35 238.43 141.25
  Q 223.32 141.09 210.66 146.06
  Q 189.86 154.23 171.52 154.32
  Q 165.39 154.35 154.64 153.34
  Q 141.02 152.07 137.73 152.10
  Q 117.26 152.34 99.20 161.36
  C 80.72 170.60 65.78 189.65 60.92 209.26
  Q 59.19 216.25 58.98 230.87
  C 58.63 254.68 58.01 268.91 59.03 288.40
  A 0.31 0.31 0.0 0 0 59.53 288.63
  C 68.81 281.43 80.07 275.96 91.81 276.35
  C 96.00 276.49 100.86 277.11 104.94 276.61
  Q 113.57 275.55 121.27 271.12
  Q 128.82 266.78 129.08 266.67
  Q 142.40 261.06 154.52 260.66
  Q 169.97 260.16 182.52 256.03
  C 190.14 253.52 200.39 246.87 208.63 243.76
  Q 217.17 240.53 221.08 239.59
  Q 242.01 234.56 246.74 232.99
  C 262.55 227.77 277.77 217.44 289.39 204.68
  A 0.76 0.76 0.0 0 0 289.30 203.58
  C 285.37 200.43 282.29 197.18 279.02 192.72
  Q 274.69 186.82 269.58 181.89
  A 2.87 2.86 -58.7 0 1 268.86 178.90
  Q 270.44 174.30 272.69 169.85
  C 276.42 162.45 277.87 156.68 281.34 147.32
  Q 284.16 139.73 289.50 132.03
  A 0.37 0.36 -85.0 0 0 289.05 131.49"
/>
<path stroke="#8a998a" vector-effect="non-scaling-stroke" d="
  M 123.01 66.47
  Q 122.71 56.09 124.84 45.69
  A 2.87 2.86 -86.8 0 1 127.37 43.42
  Q 133.52 42.83 139.62 44.52
  A 2.59 2.59 0.0 0 0 142.85 42.47
  L 144.44 33.30
  A 2.37 2.37 0.0 0 0 142.63 30.59
  Q 131.29 27.98 120.02 28.45
  Q 114.95 28.66 114.01 32.98
  C 110.54 49.00 110.14 64.46 110.00 83.00
  Q 109.93 91.96 112.45 114.75
  Q 113.24 121.87 115.48 128.53
  C 116.47 131.48 119.17 132.53 122.41 131.83
  Q 128.96 130.41 140.98 131.11
  Q 142.58 131.21 143.90 129.19
  A 1.02 1.01 -30.6 0 0 144.06 128.58
  L 143.37 118.13
  A 2.18 2.17 -0.1 0 0 141.32 116.10
  L 126.64 115.31
  A 1.15 1.15 0.0 0 1 125.57 114.35
  Q 123.13 99.52 123.16 84.06
  A 2.36 2.35 -5.0 0 1 125.10 81.76
  Q 129.29 81.02 133.00 81.44
  C 135.72 81.76 137.00 80.80 137.09 78.24
  Q 137.34 71.57 137.47 69.77
  A 1.74 1.67 39.0 0 0 137.39 69.14
  Q 136.69 67.13 134.75 67.17
  Q 124.88 67.34 123.69 67.21
  A 0.77 0.76 -87.9 0 1 123.01 66.47"
/>
<path stroke="#8a998a" vector-effect="non-scaling-stroke" d="
  M 80.98 71.76
  Q 80.27 53.83 80.50 38.53
  C 80.60 32.09 72.80 36.85 71.05 37.38
  C 66.23 38.83 66.89 42.29 67.13 47.18
  C 67.75 60.16 68.60 74.99 68.86 90.61
  Q 69.32 118.55 70.54 150.14
  A 1.76 1.73 85.6 0 0 72.47 151.82
  C 73.66 151.69 76.77 149.24 79.51 147.41
  C 82.17 145.64 82.91 144.16 82.80 141.00
  Q 81.82 114.62 81.49 104.49
  A 4.40 4.34 54.4 0 1 81.74 102.92
  L 83.93 96.71
  A 0.44 0.44 0.0 0 1 84.77 96.72
  Q 94.38 127.47 97.18 136.29
  Q 97.82 138.32 100.05 138.51
  A 2.14 2.04 -49.8 0 0 100.88 138.42
  Q 104.70 137.23 107.26 136.29
  C 110.27 135.19 110.28 133.73 109.22 130.92
  Q 100.13 107.03 91.56 79.36
  A 1.90 1.86 -46.1 0 1 91.55 78.27
  Q 98.75 53.20 107.26 32.12
  A 1.81 1.81 0.0 0 0 105.31 29.65
  Q 102.25 30.12 98.20 30.93
  Q 94.70 31.63 93.66 34.62
  Q 87.28 53.02 81.54 71.83
  A 0.29 0.29 0.0 0 1 80.98 71.76"
/>
<path stroke="#8a998a" vector-effect="non-scaling-stroke" d="
  M 165.33 133.52
  Q 173.69 133.44 178.49 121.93
  Q 180.69 116.65 181.57 111.98
  C 184.71 95.41 184.52 78.31 181.34 61.78
  C 179.85 54.03 175.05 36.60 164.40 36.70
  C 153.75 36.80 149.29 54.32 147.94 62.11
  C 145.08 78.69 145.22 95.79 148.68 112.30
  Q 149.65 116.95 151.95 122.18
  Q 156.97 133.60 165.33 133.52"
/>
<path stroke="#8a998a" vector-effect="non-scaling-stroke" d="
  M 202.08 86.22
  Q 200.04 70.78 197.20 46.27
  C 196.99 44.44 196.48 42.76 194.65 42.32
  Q 192.86 41.89 187.45 41.37
  A 1.88 1.88 0.0 0 0 185.56 42.46
  Q 184.96 43.76 185.21 45.53
  Q 189.59 76.28 193.44 101.52
  Q 195.57 115.54 196.62 125.19
  C 196.86 127.37 197.72 128.63 199.99 128.03
  Q 203.68 127.04 205.24 126.17
  A 2.36 2.36 0.0 0 0 206.17 125.24
  Q 206.77 124.18 207.16 121.46
  C 208.22 114.17 208.65 109.44 209.83 102.91
  Q 211.34 94.50 212.22 85.85
  A 0.41 0.40 42.7 0 1 213.02 85.82
  Q 215.38 98.12 219.63 119.67
  C 220.64 124.81 224.26 122.53 227.46 122.41
  A 1.18 1.14 27.5 0 0 228.03 122.24
  Q 230.08 121.01 230.23 119.71
  Q 232.84 97.47 233.52 91.00
  Q 234.33 83.39 237.65 47.20
  A 2.05 2.04 -76.4 0 0 236.39 45.13
  C 234.47 44.36 230.00 42.77 228.35 43.95
  Q 226.89 44.99 226.83 45.84
  Q 225.39 66.27 223.48 85.96
  A 0.23 0.23 0.0 0 1 223.17 86.15
  Q 222.82 86.01 222.73 85.54
  Q 217.05 57.59 217.04 57.48
  C 216.63 53.31 214.24 51.84 210.52 52.78
  Q 207.69 53.50 207.19 56.63
  Q 205.65 66.26 202.93 86.22
  A 0.43 0.43 0.0 0 1 202.08 86.22"
/>
<path stroke="#8a998a" vector-effect="non-scaling-stroke" d="
  M 253.80 77.89
  L 253.80 65.16
  A 1.47 1.47 0.0 0 1 255.52 63.71
  L 266.76 65.66
  A 2.53 2.53 0.0 0 0 269.71 63.30
  L 270.06 56.73
  A 1.86 1.86 0.0 0 0 268.56 54.80
  Q 260.23 53.19 250.05 49.88
  C 243.60 47.78 243.66 54.27 243.44 58.75
  Q 243.30 61.55 243.04 75.93
  C 242.79 89.99 243.75 105.94 243.47 118.50
  Q 243.41 121.06 245.79 121.21
  Q 255.79 121.84 266.74 119.03
  C 268.90 118.48 270.48 117.46 270.35 115.24
  Q 270.16 111.81 270.18 109.77
  A 2.12 2.12 0.0 0 0 267.50 107.70
  Q 261.79 109.29 255.13 108.86
  A 1.33 1.32 1.8 0 1 253.89 107.54
  L 253.89 91.88
  A 1.14 1.13 -90.0 0 1 255.02 90.74
  L 263.09 90.74
  A 2.11 2.11 0.0 0 0 265.20 88.74
  L 265.56 82.19
  A 1.99 1.98 -83.6 0 0 263.92 80.13
  L 254.28 78.46
  A 0.58 0.57 -85.3 0 1 253.80 77.89"
/>
<path stroke="#8a998a" vector-effect="non-scaling-stroke" d="
  M 286.87 99.55
  L 286.87 88.42
  A 1.28 1.27 80.3 0 1 287.71 87.22
  L 294.93 84.63
  A 3.72 3.71 -10.0 0 0 297.38 81.14
  L 297.38 76.86
  A 1.87 1.87 0.0 0 0 295.16 75.02
  L 287.42 76.50
  A 0.57 0.57 0.0 0 1 286.74 75.94
  L 286.74 67.64
  A 1.41 1.41 0.0 0 1 287.88 66.26
  L 298.76 64.18
  A 3.66 3.66 0.0 0 0 301.67 61.21
  L 302.41 56.95
  A 2.18 2.18 0.0 0 0 299.78 54.45
  Q 291.77 56.24 281.66 56.28
  C 278.65 56.29 276.61 57.02 276.56 60.27
  Q 276.27 80.41 277.03 111.74
  Q 277.10 114.57 279.82 114.59
  A 2.23 2.14 -53.4 0 0 280.64 114.45
  Q 291.89 110.11 301.21 101.94
  A 4.32 4.28 -20.8 0 0 302.68 98.71
  L 302.68 93.43
  A 1.11 1.11 0.0 0 0 301.02 92.47
  L 287.82 100.10
  A 0.64 0.63 -14.8 0 1 286.87 99.55"
/>
<path stroke="#8a998a" vector-effect="non-scaling-stroke" d="
  M 164.7142 53.2318
  A 32.07 7.47 -90.6 0 0 157.5804 85.3782
  A 32.07 7.47 -90.6 0 0 165.3858 117.3682
  A 32.07 7.47 -90.6 0 0 172.5196 85.2218
  A 32.07 7.47 -90.6 0 0 164.7142 53.2318"
/>
<path stroke="#8a998a" vector-effect="non-scaling-stroke" d="
  M 245.55 184.08
  C 245.99 183.19 247.87 181.63 248.76 180.32
  Q 253.25 173.74 252.44 165.78
  C 251.44 155.87 244.43 151.34 234.77 151.48
  Q 229.59 151.56 220.52 154.42
  C 218.34 155.10 217.47 156.66 217.55 158.77
  Q 218.51 183.78 218.66 211.51
  Q 218.70 219.22 218.33 226.87
  A 2.19 2.19 0.0 0 0 220.87 229.14
  C 231.02 227.51 241.36 225.37 248.60 217.44
  Q 258.21 206.90 254.18 194.04
  C 252.85 189.81 250.05 186.37 245.87 184.87
  A 0.58 0.57 -67.4 0 1 245.55 184.08"
/>
<path stroke="#8a998a" vector-effect="non-scaling-stroke" d="
  M 206.45 161.23
  C 206.44 159.79 204.83 158.66 203.54 159.06
  Q 199.44 160.34 195.89 161.23
  A 2.57 2.57 0.0 0 0 193.95 163.57
  Q 193.76 166.86 193.79 167.50
  Q 194.91 190.66 194.81 211.00
  C 194.79 215.35 194.08 223.27 190.73 226.04
  C 186.80 229.28 182.78 227.63 181.50 223.02
  C 180.22 218.40 180.13 212.95 180.05 208.50
  Q 179.82 195.82 179.74 167.04
  C 179.73 163.36 174.43 164.82 172.45 164.80
  C 168.72 164.76 166.89 165.56 167.01 169.51
  Q 167.73 193.30 168.12 215.00
  C 168.30 225.57 170.22 243.39 185.30 242.08
  C 191.34 241.55 197.42 238.05 200.75 232.97
  C 205.62 225.53 206.61 216.57 206.83 207.75
  Q 207.06 198.03 206.55 181.60
  C 206.37 175.51 206.50 168.14 206.45 161.23"
/>
<path stroke="#8a998a" vector-effect="non-scaling-stroke" d="
  M 140.15 238.30
  Q 140.08 238.20 140.06 237.96
  Q 139.73 233.79 139.69 223.17
  C 139.63 208.42 138.90 194.63 138.77 179.00
  Q 138.72 172.28 139.04 167.50
  C 139.22 164.90 138.55 163.53 135.78 163.71
  C 133.18 163.88 125.19 164.60 125.35 168.53
  Q 127.65 224.57 127.66 234.75
  Q 127.67 245.97 127.77 253.90
  A 1.98 1.97 -8.9 0 0 130.33 255.76
  Q 139.93 252.80 153.01 250.67
  Q 153.53 250.58 155.68 249.97
  C 158.40 249.19 160.79 249.06 161.46 245.70
  Q 161.66 244.65 161.80 237.52
  Q 161.84 235.58 160.29 234.99
  A 1.31 1.27 -44.2 0 0 159.36 234.99
  Q 150.62 238.21 141.45 238.89
  Q 140.61 238.95 140.15 238.30"
/>
<path stroke="#8a998a" vector-effect="non-scaling-stroke" d="
  M 106.43 199.68
  Q 107.64 198.69 108.82 196.83
  C 111.25 193.00 116.18 185.53 114.64 181.95
  C 108.19 166.92 93.23 175.71 87.54 185.32
  Q 81.13 196.14 79.38 208.91
  Q 77.01 226.26 79.50 239.24
  C 81.12 247.65 83.97 257.03 90.76 261.41
  C 97.16 265.54 105.13 264.69 110.20 259.44
  C 114.46 255.04 117.12 249.66 118.74 243.21
  Q 119.26 241.16 117.68 240.05
  Q 116.18 239.01 112.10 236.63
  C 109.95 235.37 108.95 236.88 108.32 238.79
  C 106.98 242.86 105.90 245.98 102.94 248.19
  C 97.99 251.88 94.06 245.15 93.10 241.33
  Q 88.83 224.34 91.72 207.25
  C 92.46 202.95 94.91 192.30 100.22 191.81
  A 1.26 1.25 -27.8 0 1 101.14 192.09
  C 103.69 194.17 103.77 195.62 104.86 199.21
  A 0.99 0.98 -28.3 0 0 106.43 199.68"
/>
<path stroke="#8a998a" vector-effect="non-scaling-stroke" d="
  M 230.41 180.82
  Q 238.42 179.80 240.60 173.19
  C 241.76 169.68 241.14 165.37 237.61 163.67
  C 235.49 162.65 232.88 163.08 230.73 163.73
  A 1.30 1.30 0.0 0 0 229.80 164.97
  L 229.65 180.15
  A 0.67 0.66 -3.3 0 0 230.41 180.82"
/>
<path stroke="#8a998a" vector-effect="non-scaling-stroke" d="
  M 231.14 214.32
  Q 240.54 213.03 243.02 205.25
  C 244.34 201.12 243.56 196.06 239.40 194.11
  C 236.90 192.94 233.84 193.47 231.33 194.26
  A 1.53 1.53 0.0 0 0 230.25 195.72
  L 230.25 213.55
  A 0.79 0.78 -3.9 0 0 231.14 214.32"
/>
</g>

<path fill="#1e4337" d="
  M 50.47 307.77
  A 1.19 1.18 -17.3 0 1 48.58 306.78
  Q 48.70 302.77 48.81 288.25
  Q 48.85 282.22 48.10 244.41
  Q 48.00 239.42 48.71 224.99
  C 49.57 207.59 49.49 192.43 49.89 173.50
  Q 50.05 166.19 49.60 158.37
  C 48.21 134.07 46.15 109.66 45.45 85.26
  Q 44.66 57.51 43.95 28.92
  C 43.88 26.41 45.71 24.69 48.27 23.94
  Q 49.65 23.54 59.92 19.62
  C 73.37 14.48 86.70 12.04 103.03 9.34
  Q 130.37 4.81 155.81 13.20
  Q 162.21 15.31 177.51 19.80
  Q 183.44 21.54 189.26 22.41
  Q 197.83 23.69 201.26 23.56
  C 215.71 23.01 226.16 22.23 238.04 25.23
  Q 244.30 26.81 252.17 29.83
  Q 262.10 33.65 266.13 34.75
  Q 286.45 40.30 308.55 35.69
  Q 324.49 32.36 324.53 32.36
  C 333.09 30.67 342.09 31.04 350.04 34.52
  C 351.65 35.22 352.73 36.68 351.27 38.13
  Q 346.39 42.97 342.13 48.39
  Q 333.07 59.92 330.00 74.24
  Q 327.90 84.06 327.02 87.53
  Q 322.33 105.96 308.05 118.78
  Q 306.11 120.53 304.20 122.35
  A 1.45 1.42 68.7 0 0 303.76 123.39
  L 303.76 124.10
  A 2.48 2.46 -28.5 0 1 303.35 125.46
  C 296.77 135.50 290.87 145.64 287.21 156.69
  C 284.76 164.11 282.27 169.04 279.10 177.24
  A 1.26 1.26 0.0 0 0 279.35 178.53
  Q 284.12 183.74 288.60 189.47
  C 292.23 194.10 296.13 197.07 300.73 200.48
  Q 304.12 202.99 301.18 206.19
  Q 294.80 213.15 284.77 221.76
  Q 266.71 237.26 243.70 243.93
  Q 240.47 244.86 231.81 246.76
  C 220.90 249.16 211.30 252.17 201.44 257.35
  Q 190.65 263.03 188.08 263.99
  Q 176.15 268.47 164.26 269.57
  Q 159.36 270.03 149.00 270.70
  Q 144.77 270.98 135.98 274.00
  C 130.67 275.82 124.54 280.26 119.05 282.65
  C 112.16 285.64 103.84 287.21 96.13 286.37
  C 91.56 285.87 85.71 285.87 81.02 287.52
  Q 70.58 291.20 61.18 299.19
  Q 55.07 304.39 50.47 307.77
  Z
  M 336.62 41.43
  A 0.48 0.47 -66.6 0 0 336.31 40.64
  Q 331.30 40.19 325.54 41.39
  Q 324.74 41.55 307.88 44.89
  Q 297.55 46.93 290.05 46.98
  C 277.79 47.05 265.97 45.10 254.14 40.53
  C 244.42 36.76 233.62 32.77 222.35 32.26
  Q 218.32 32.08 208.17 32.74
  Q 200.66 33.23 193.99 32.53
  C 179.15 30.97 160.42 24.34 149.81 21.45
  Q 139.08 18.51 127.12 17.41
  Q 119.31 16.69 108.45 18.30
  Q 88.41 21.27 81.28 23.00
  Q 68.29 26.15 55.98 31.47
  Q 53.95 32.35 53.99 35.02
  Q 54.34 55.96 55.73 93.23
  C 56.36 110.34 58.47 132.11 59.01 149.00
  Q 59.66 169.61 58.99 189.31
  A 0.40 0.39 -11.4 0 0 59.56 189.68
  Q 59.97 189.47 60.15 189.15
  Q 66.89 177.09 76.83 166.62
  C 95.67 146.77 124.36 139.96 150.80 143.11
  Q 162.07 144.45 170.50 144.56
  Q 184.35 144.74 197.22 140.68
  Q 200.59 139.62 213.67 135.17
  C 223.04 131.98 235.58 131.66 246.53 131.91
  Q 251.90 132.04 257.58 131.29
  C 278.65 128.53 301.84 118.69 312.41 98.95
  Q 317.79 88.90 319.01 81.54
  C 321.46 66.68 326.82 52.32 336.62 41.43
  Z
  M 289.05 131.49
  Q 270.01 140.39 250.09 141.24
  Q 247.50 141.35 238.43 141.25
  Q 223.32 141.09 210.66 146.06
  Q 189.86 154.23 171.52 154.32
  Q 165.39 154.35 154.64 153.34
  Q 141.02 152.07 137.73 152.10
  Q 117.26 152.34 99.20 161.36
  C 80.72 170.60 65.78 189.65 60.92 209.26
  Q 59.19 216.25 58.98 230.87
  C 58.63 254.68 58.01 268.91 59.03 288.40
  A 0.31 0.31 0.0 0 0 59.53 288.63
  C 68.81 281.43 80.07 275.96 91.81 276.35
  C 96.00 276.49 100.86 277.11 104.94 276.61
  Q 113.57 275.55 121.27 271.12
  Q 128.82 266.78 129.08 266.67
  Q 142.40 261.06 154.52 260.66
  Q 169.97 260.16 182.52 256.03
  C 190.14 253.52 200.39 246.87 208.63 243.76
  Q 217.17 240.53 221.08 239.59
  Q 242.01 234.56 246.74 232.99
  C 262.55 227.77 277.77 217.44 289.39 204.68
  A 0.76 0.76 0.0 0 0 289.30 203.58
  C 285.37 200.43 282.29 197.18 279.02 192.72
  Q 274.69 186.82 269.58 181.89
  A 2.87 2.86 -58.7 0 1 268.86 178.90
  Q 270.44 174.30 272.69 169.85
  C 276.42 162.45 277.87 156.68 281.34 147.32
  Q 284.16 139.73 289.50 132.03
  A 0.37 0.36 -85.0 0 0 289.05 131.49
  Z"
/>
<path fill="#f6eedd" d="
  M 336.62 41.43
  C 326.82 52.32 321.46 66.68 319.01 81.54
  Q 317.79 88.90 312.41 98.95
  C 301.84 118.69 278.65 128.53 257.58 131.29
  Q 251.90 132.04 246.53 131.91
  C 235.58 131.66 223.04 131.98 213.67 135.17
  Q 200.59 139.62 197.22 140.68
  Q 184.35 144.74 170.50 144.56
  Q 162.07 144.45 150.80 143.11
  C 124.36 139.96 95.67 146.77 76.83 166.62
  Q 66.89 177.09 60.15 189.15
  Q 59.97 189.47 59.56 189.68
  A 0.40 0.39 -11.4 0 1 58.99 189.31
  Q 59.66 169.61 59.01 149.00
  C 58.47 132.11 56.36 110.34 55.73 93.23
  Q 54.34 55.96 53.99 35.02
  Q 53.95 32.35 55.98 31.47
  Q 68.29 26.15 81.28 23.00
  Q 88.41 21.27 108.45 18.30
  Q 119.31 16.69 127.12 17.41
  Q 139.08 18.51 149.81 21.45
  C 160.42 24.34 179.15 30.97 193.99 32.53
  Q 200.66 33.23 208.17 32.74
  Q 218.32 32.08 222.35 32.26
  C 233.62 32.77 244.42 36.76 254.14 40.53
  C 265.97 45.10 277.79 47.05 290.05 46.98
  Q 297.55 46.93 307.88 44.89
  Q 324.74 41.55 325.54 41.39
  Q 331.30 40.19 336.31 40.64
  A 0.48 0.47 -66.6 0 1 336.62 41.43
  Z
  M 123.01 66.47
  Q 122.71 56.09 124.84 45.69
  A 2.87 2.86 -86.8 0 1 127.37 43.42
  Q 133.52 42.83 139.62 44.52
  A 2.59 2.59 0.0 0 0 142.85 42.47
  L 144.44 33.30
  A 2.37 2.37 0.0 0 0 142.63 30.59
  Q 131.29 27.98 120.02 28.45
  Q 114.95 28.66 114.01 32.98
  C 110.54 49.00 110.14 64.46 110.00 83.00
  Q 109.93 91.96 112.45 114.75
  Q 113.24 121.87 115.48 128.53
  C 116.47 131.48 119.17 132.53 122.41 131.83
  Q 128.96 130.41 140.98 131.11
  Q 142.58 131.21 143.90 129.19
  A 1.02 1.01 -30.6 0 0 144.06 128.58
  L 143.37 118.13
  A 2.18 2.17 -0.1 0 0 141.32 116.10
  L 126.64 115.31
  A 1.15 1.15 0.0 0 1 125.57 114.35
  Q 123.13 99.52 123.16 84.06
  A 2.36 2.35 -5.0 0 1 125.10 81.76
  Q 129.29 81.02 133.00 81.44
  C 135.72 81.76 137.00 80.80 137.09 78.24
  Q 137.34 71.57 137.47 69.77
  A 1.74 1.67 39.0 0 0 137.39 69.14
  Q 136.69 67.13 134.75 67.17
  Q 124.88 67.34 123.69 67.21
  A 0.77 0.76 -87.9 0 1 123.01 66.47
  Z
  M 80.98 71.76
  Q 80.27 53.83 80.50 38.53
  C 80.60 32.09 72.80 36.85 71.05 37.38
  C 66.23 38.83 66.89 42.29 67.13 47.18
  C 67.75 60.16 68.60 74.99 68.86 90.61
  Q 69.32 118.55 70.54 150.14
  A 1.76 1.73 85.6 0 0 72.47 151.82
  C 73.66 151.69 76.77 149.24 79.51 147.41
  C 82.17 145.64 82.91 144.16 82.80 141.00
  Q 81.82 114.62 81.49 104.49
  A 4.40 4.34 54.4 0 1 81.74 102.92
  L 83.93 96.71
  A 0.44 0.44 0.0 0 1 84.77 96.72
  Q 94.38 127.47 97.18 136.29
  Q 97.82 138.32 100.05 138.51
  A 2.14 2.04 -49.8 0 0 100.88 138.42
  Q 104.70 137.23 107.26 136.29
  C 110.27 135.19 110.28 133.73 109.22 130.92
  Q 100.13 107.03 91.56 79.36
  A 1.90 1.86 -46.1 0 1 91.55 78.27
  Q 98.75 53.20 107.26 32.12
  A 1.81 1.81 0.0 0 0 105.31 29.65
  Q 102.25 30.12 98.20 30.93
  Q 94.70 31.63 93.66 34.62
  Q 87.28 53.02 81.54 71.83
  A 0.29 0.29 0.0 0 1 80.98 71.76
  Z
  M 165.33 133.52
  Q 173.69 133.44 178.49 121.93
  Q 180.69 116.65 181.57 111.98
  C 184.71 95.41 184.52 78.31 181.34 61.78
  C 179.85 54.03 175.05 36.60 164.40 36.70
  C 153.75 36.80 149.29 54.32 147.94 62.11
  C 145.08 78.69 145.22 95.79 148.68 112.30
  Q 149.65 116.95 151.95 122.18
  Q 156.97 133.60 165.33 133.52
  Z
  M 202.08 86.22
  Q 200.04 70.78 197.20 46.27
  C 196.99 44.44 196.48 42.76 194.65 42.32
  Q 192.86 41.89 187.45 41.37
  A 1.88 1.88 0.0 0 0 185.56 42.46
  Q 184.96 43.76 185.21 45.53
  Q 189.59 76.28 193.44 101.52
  Q 195.57 115.54 196.62 125.19
  C 196.86 127.37 197.72 128.63 199.99 128.03
  Q 203.68 127.04 205.24 126.17
  A 2.36 2.36 0.0 0 0 206.17 125.24
  Q 206.77 124.18 207.16 121.46
  C 208.22 114.17 208.65 109.44 209.83 102.91
  Q 211.34 94.50 212.22 85.85
  A 0.41 0.40 42.7 0 1 213.02 85.82
  Q 215.38 98.12 219.63 119.67
  C 220.64 124.81 224.26 122.53 227.46 122.41
  A 1.18 1.14 27.5 0 0 228.03 122.24
  Q 230.08 121.01 230.23 119.71
  Q 232.84 97.47 233.52 91.00
  Q 234.33 83.39 237.65 47.20
  A 2.05 2.04 -76.4 0 0 236.39 45.13
  C 234.47 44.36 230.00 42.77 228.35 43.95
  Q 226.89 44.99 226.83 45.84
  Q 225.39 66.27 223.48 85.96
  A 0.23 0.23 0.0 0 1 223.17 86.15
  Q 222.82 86.01 222.73 85.54
  Q 217.05 57.59 217.04 57.48
  C 216.63 53.31 214.24 51.84 210.52 52.78
  Q 207.69 53.50 207.19 56.63
  Q 205.65 66.26 202.93 86.22
  A 0.43 0.43 0.0 0 1 202.08 86.22
  Z
  M 253.80 77.89
  L 253.80 65.16
  A 1.47 1.47 0.0 0 1 255.52 63.71
  L 266.76 65.66
  A 2.53 2.53 0.0 0 0 269.71 63.30
  L 270.06 56.73
  A 1.86 1.86 0.0 0 0 268.56 54.80
  Q 260.23 53.19 250.05 49.88
  C 243.60 47.78 243.66 54.27 243.44 58.75
  Q 243.30 61.55 243.04 75.93
  C 242.79 89.99 243.75 105.94 243.47 118.50
  Q 243.41 121.06 245.79 121.21
  Q 255.79 121.84 266.74 119.03
  C 268.90 118.48 270.48 117.46 270.35 115.24
  Q 270.16 111.81 270.18 109.77
  A 2.12 2.12 0.0 0 0 267.50 107.70
  Q 261.79 109.29 255.13 108.86
  A 1.33 1.32 1.8 0 1 253.89 107.54
  L 253.89 91.88
  A 1.14 1.13 -90.0 0 1 255.02 90.74
  L 263.09 90.74
  A 2.11 2.11 0.0 0 0 265.20 88.74
  L 265.56 82.19
  A 1.99 1.98 -83.6 0 0 263.92 80.13
  L 254.28 78.46
  A 0.58 0.57 -85.3 0 1 253.80 77.89
  Z
  M 286.87 99.55
  L 286.87 88.42
  A 1.28 1.27 80.3 0 1 287.71 87.22
  L 294.93 84.63
  A 3.72 3.71 -10.0 0 0 297.38 81.14
  L 297.38 76.86
  A 1.87 1.87 0.0 0 0 295.16 75.02
  L 287.42 76.50
  A 0.57 0.57 0.0 0 1 286.74 75.94
  L 286.74 67.64
  A 1.41 1.41 0.0 0 1 287.88 66.26
  L 298.76 64.18
  A 3.66 3.66 0.0 0 0 301.67 61.21
  L 302.41 56.95
  A 2.18 2.18 0.0 0 0 299.78 54.45
  Q 291.77 56.24 281.66 56.28
  C 278.65 56.29 276.61 57.02 276.56 60.27
  Q 276.27 80.41 277.03 111.74
  Q 277.10 114.57 279.82 114.59
  A 2.23 2.14 -53.4 0 0 280.64 114.45
  Q 291.89 110.11 301.21 101.94
  A 4.32 4.28 -20.8 0 0 302.68 98.71
  L 302.68 93.43
  A 1.11 1.11 0.0 0 0 301.02 92.47
  L 287.82 100.10
  A 0.64 0.63 -14.8 0 1 286.87 99.55
  Z"
/>
<path fill="#1e4337" d="
  M 123.69 67.21
  Q 124.88 67.34 134.75 67.17
  Q 136.69 67.13 137.39 69.14
  A 1.74 1.67 39.0 0 1 137.47 69.77
  Q 137.34 71.57 137.09 78.24
  C 137.00 80.80 135.72 81.76 133.00 81.44
  Q 129.29 81.02 125.10 81.76
  A 2.36 2.35 -5.0 0 0 123.16 84.06
  Q 123.13 99.52 125.57 114.35
  A 1.15 1.15 0.0 0 0 126.64 115.31
  L 141.32 116.10
  A 2.18 2.17 -0.1 0 1 143.37 118.13
  L 144.06 128.58
  A 1.02 1.01 -30.6 0 1 143.90 129.19
  Q 142.58 131.21 140.98 131.11
  Q 128.96 130.41 122.41 131.83
  C 119.17 132.53 116.47 131.48 115.48 128.53
  Q 113.24 121.87 112.45 114.75
  Q 109.93 91.96 110.00 83.00
  C 110.14 64.46 110.54 49.00 114.01 32.98
  Q 114.95 28.66 120.02 28.45
  Q 131.29 27.98 142.63 30.59
  A 2.37 2.37 0.0 0 1 144.44 33.30
  L 142.85 42.47
  A 2.59 2.59 0.0 0 1 139.62 44.52
  Q 133.52 42.83 127.37 43.42
  A 2.87 2.86 -86.8 0 0 124.84 45.69
  Q 122.71 56.09 123.01 66.47
  A 0.77 0.76 -87.9 0 0 123.69 67.21
  Z"
/>
<path fill="#1e4337" d="
  M 80.98 71.76
  A 0.29 0.29 0.0 0 0 81.54 71.83
  Q 87.28 53.02 93.66 34.62
  Q 94.70 31.63 98.20 30.93
  Q 102.25 30.12 105.31 29.65
  A 1.81 1.81 0.0 0 1 107.26 32.12
  Q 98.75 53.20 91.55 78.27
  A 1.90 1.86 -46.1 0 0 91.56 79.36
  Q 100.13 107.03 109.22 130.92
  C 110.28 133.73 110.27 135.19 107.26 136.29
  Q 104.70 137.23 100.88 138.42
  A 2.14 2.04 -49.8 0 1 100.05 138.51
  Q 97.82 138.32 97.18 136.29
  Q 94.38 127.47 84.77 96.72
  A 0.44 0.44 0.0 0 0 83.93 96.71
  L 81.74 102.92
  A 4.40 4.34 54.4 0 0 81.49 104.49
  Q 81.82 114.62 82.80 141.00
  C 82.91 144.16 82.17 145.64 79.51 147.41
  C 76.77 149.24 73.66 151.69 72.47 151.82
  A 1.76 1.73 85.6 0 1 70.54 150.14
  Q 69.32 118.55 68.86 90.61
  C 68.60 74.99 67.75 60.16 67.13 47.18
  C 66.89 42.29 66.23 38.83 71.05 37.38
  C 72.80 36.85 80.60 32.09 80.50 38.53
  Q 80.27 53.83 80.98 71.76
  Z"
/>
<path fill="#1e4337" d="
  M 164.40 36.70
  C 175.05 36.60 179.85 54.03 181.34 61.78
  C 184.52 78.31 184.71 95.41 181.57 111.98
  Q 180.69 116.65 178.49 121.93
  Q 173.69 133.44 165.33 133.52
  Q 156.97 133.60 151.95 122.18
  Q 149.65 116.95 148.68 112.30
  C 145.22 95.79 145.08 78.69 147.94 62.11
  C 149.29 54.32 153.75 36.80 164.40 36.70
  Z
  M 164.7142 53.2318
  A 32.07 7.47 -90.6 0 0 157.5804 85.3782
  A 32.07 7.47 -90.6 0 0 165.3858 117.3682
  A 32.07 7.47 -90.6 0 0 172.5196 85.2218
  A 32.07 7.47 -90.6 0 0 164.7142 53.2318
  Z"
/>
<path fill="#1e4337" d="
  M 202.08 86.22
  A 0.43 0.43 0.0 0 0 202.93 86.22
  Q 205.65 66.26 207.19 56.63
  Q 207.69 53.50 210.52 52.78
  C 214.24 51.84 216.63 53.31 217.04 57.48
  Q 217.05 57.59 222.73 85.54
  Q 222.82 86.01 223.17 86.15
  A 0.23 0.23 0.0 0 0 223.48 85.96
  Q 225.39 66.27 226.83 45.84
  Q 226.89 44.99 228.35 43.95
  C 230.00 42.77 234.47 44.36 236.39 45.13
  A 2.05 2.04 -76.4 0 1 237.65 47.20
  Q 234.33 83.39 233.52 91.00
  Q 232.84 97.47 230.23 119.71
  Q 230.08 121.01 228.03 122.24
  A 1.18 1.14 27.5 0 1 227.46 122.41
  C 224.26 122.53 220.64 124.81 219.63 119.67
  Q 215.38 98.12 213.02 85.82
  A 0.41 0.40 42.7 0 0 212.22 85.85
  Q 211.34 94.50 209.83 102.91
  C 208.65 109.44 208.22 114.17 207.16 121.46
  Q 206.77 124.18 206.17 125.24
  A 2.36 2.36 0.0 0 1 205.24 126.17
  Q 203.68 127.04 199.99 128.03
  C 197.72 128.63 196.86 127.37 196.62 125.19
  Q 195.57 115.54 193.44 101.52
  Q 189.59 76.28 185.21 45.53
  Q 184.96 43.76 185.56 42.46
  A 1.88 1.88 0.0 0 1 187.45 41.37
  Q 192.86 41.89 194.65 42.32
  C 196.48 42.76 196.99 44.44 197.20 46.27
  Q 200.04 70.78 202.08 86.22
  Z"
/>
<path fill="#1e4337" d="
  M 253.80 77.89
  A 0.58 0.57 -85.3 0 0 254.28 78.46
  L 263.92 80.13
  A 1.99 1.98 -83.6 0 1 265.56 82.19
  L 265.20 88.74
  A 2.11 2.11 0.0 0 1 263.09 90.74
  L 255.02 90.74
  A 1.14 1.13 -90.0 0 0 253.89 91.88
  L 253.89 107.54
  A 1.33 1.32 1.8 0 0 255.13 108.86
  Q 261.79 109.29 267.50 107.70
  A 2.12 2.12 0.0 0 1 270.18 109.77
  Q 270.16 111.81 270.35 115.24
  C 270.48 117.46 268.90 118.48 266.74 119.03
  Q 255.79 121.84 245.79 121.21
  Q 243.41 121.06 243.47 118.50
  C 243.75 105.94 242.79 89.99 243.04 75.93
  Q 243.30 61.55 243.44 58.75
  C 243.66 54.27 243.60 47.78 250.05 49.88
  Q 260.23 53.19 268.56 54.80
  A 1.86 1.86 0.0 0 1 270.06 56.73
  L 269.71 63.30
  A 2.53 2.53 0.0 0 1 266.76 65.66
  L 255.52 63.71
  A 1.47 1.47 0.0 0 0 253.80 65.16
  L 253.80 77.89
  Z"
/>
<ellipse fill="#f6eedd" cx="0.00" cy="0.00" transform="translate(165.05,85.30) rotate(-90.6)" rx="32.07" ry="7.47"/>
<path fill="#1e4337" d="
  M 286.87 99.55
  A 0.64 0.63 -14.8 0 0 287.82 100.10
  L 301.02 92.47
  A 1.11 1.11 0.0 0 1 302.68 93.43
  L 302.68 98.71
  A 4.32 4.28 -20.8 0 1 301.21 101.94
  Q 291.89 110.11 280.64 114.45
  A 2.23 2.14 -53.4 0 1 279.82 114.59
  Q 277.10 114.57 277.03 111.74
  Q 276.27 80.41 276.56 60.27
  C 276.61 57.02 278.65 56.29 281.66 56.28
  Q 291.77 56.24 299.78 54.45
  A 2.18 2.18 0.0 0 1 302.41 56.95
  L 301.67 61.21
  A 3.66 3.66 0.0 0 1 298.76 64.18
  L 287.88 66.26
  A 1.41 1.41 0.0 0 0 286.74 67.64
  L 286.74 75.94
  A 0.57 0.57 0.0 0 0 287.42 76.50
  L 295.16 75.02
  A 1.87 1.87 0.0 0 1 297.38 76.86
  L 297.38 81.14
  A 3.72 3.71 -10.0 0 1 294.93 84.63
  L 287.71 87.22
  A 1.28 1.27 80.3 0 0 286.87 88.42
  L 286.87 99.55
  Z"
/>
<path fill="#f6eedd" d="
  M 289.05 131.49
  A 0.37 0.36 -85.0 0 1 289.50 132.03
  Q 284.16 139.73 281.34 147.32
  C 277.87 156.68 276.42 162.45 272.69 169.85
  Q 270.44 174.30 268.86 178.90
  A 2.87 2.86 -58.7 0 0 269.58 181.89
  Q 274.69 186.82 279.02 192.72
  C 282.29 197.18 285.37 200.43 289.30 203.58
  A 0.76 0.76 0.0 0 1 289.39 204.68
  C 277.77 217.44 262.55 227.77 246.74 232.99
  Q 242.01 234.56 221.08 239.59
  Q 217.17 240.53 208.63 243.76
  C 200.39 246.87 190.14 253.52 182.52 256.03
  Q 169.97 260.16 154.52 260.66
  Q 142.40 261.06 129.08 266.67
  Q 128.82 266.78 121.27 271.12
  Q 113.57 275.55 104.94 276.61
  C 100.86 277.11 96.00 276.49 91.81 276.35
  C 80.07 275.96 68.81 281.43 59.53 288.63
  A 0.31 0.31 0.0 0 1 59.03 288.40
  C 58.01 268.91 58.63 254.68 58.98 230.87
  Q 59.19 216.25 60.92 209.26
  C 65.78 189.65 80.72 170.60 99.20 161.36
  Q 117.26 152.34 137.73 152.10
  Q 141.02 152.07 154.64 153.34
  Q 165.39 154.35 171.52 154.32
  Q 189.86 154.23 210.66 146.06
  Q 223.32 141.09 238.43 141.25
  Q 247.50 141.35 250.09 141.24
  Q 270.01 140.39 289.05 131.49
  Z
  M 245.55 184.08
  C 245.99 183.19 247.87 181.63 248.76 180.32
  Q 253.25 173.74 252.44 165.78
  C 251.44 155.87 244.43 151.34 234.77 151.48
  Q 229.59 151.56 220.52 154.42
  C 218.34 155.10 217.47 156.66 217.55 158.77
  Q 218.51 183.78 218.66 211.51
  Q 218.70 219.22 218.33 226.87
  A 2.19 2.19 0.0 0 0 220.87 229.14
  C 231.02 227.51 241.36 225.37 248.60 217.44
  Q 258.21 206.90 254.18 194.04
  C 252.85 189.81 250.05 186.37 245.87 184.87
  A 0.58 0.57 -67.4 0 1 245.55 184.08
  Z
  M 206.45 161.23
  C 206.44 159.79 204.83 158.66 203.54 159.06
  Q 199.44 160.34 195.89 161.23
  A 2.57 2.57 0.0 0 0 193.95 163.57
  Q 193.76 166.86 193.79 167.50
  Q 194.91 190.66 194.81 211.00
  C 194.79 215.35 194.08 223.27 190.73 226.04
  C 186.80 229.28 182.78 227.63 181.50 223.02
  C 180.22 218.40 180.13 212.95 180.05 208.50
  Q 179.82 195.82 179.74 167.04
  C 179.73 163.36 174.43 164.82 172.45 164.80
  C 168.72 164.76 166.89 165.56 167.01 169.51
  Q 167.73 193.30 168.12 215.00
  C 168.30 225.57 170.22 243.39 185.30 242.08
  C 191.34 241.55 197.42 238.05 200.75 232.97
  C 205.62 225.53 206.61 216.57 206.83 207.75
  Q 207.06 198.03 206.55 181.60
  C 206.37 175.51 206.50 168.14 206.45 161.23
  Z
  M 140.15 238.30
  Q 140.08 238.20 140.06 237.96
  Q 139.73 233.79 139.69 223.17
  C 139.63 208.42 138.90 194.63 138.77 179.00
  Q 138.72 172.28 139.04 167.50
  C 139.22 164.90 138.55 163.53 135.78 163.71
  C 133.18 163.88 125.19 164.60 125.35 168.53
  Q 127.65 224.57 127.66 234.75
  Q 127.67 245.97 127.77 253.90
  A 1.98 1.97 -8.9 0 0 130.33 255.76
  Q 139.93 252.80 153.01 250.67
  Q 153.53 250.58 155.68 249.97
  C 158.40 249.19 160.79 249.06 161.46 245.70
  Q 161.66 244.65 161.80 237.52
  Q 161.84 235.58 160.29 234.99
  A 1.31 1.27 -44.2 0 0 159.36 234.99
  Q 150.62 238.21 141.45 238.89
  Q 140.61 238.95 140.15 238.30
  Z
  M 106.43 199.68
  Q 107.64 198.69 108.82 196.83
  C 111.25 193.00 116.18 185.53 114.64 181.95
  C 108.19 166.92 93.23 175.71 87.54 185.32
  Q 81.13 196.14 79.38 208.91
  Q 77.01 226.26 79.50 239.24
  C 81.12 247.65 83.97 257.03 90.76 261.41
  C 97.16 265.54 105.13 264.69 110.20 259.44
  C 114.46 255.04 117.12 249.66 118.74 243.21
  Q 119.26 241.16 117.68 240.05
  Q 116.18 239.01 112.10 236.63
  C 109.95 235.37 108.95 236.88 108.32 238.79
  C 106.98 242.86 105.90 245.98 102.94 248.19
  C 97.99 251.88 94.06 245.15 93.10 241.33
  Q 88.83 224.34 91.72 207.25
  C 92.46 202.95 94.91 192.30 100.22 191.81
  A 1.26 1.25 -27.8 0 1 101.14 192.09
  C 103.69 194.17 103.77 195.62 104.86 199.21
  A 0.99 0.98 -28.3 0 0 106.43 199.68
  Z"
/>
<path fill="#1e4337" d="
  M 245.55 184.08
  A 0.58 0.57 -67.4 0 0 245.87 184.87
  C 250.05 186.37 252.85 189.81 254.18 194.04
  Q 258.21 206.90 248.60 217.44
  C 241.36 225.37 231.02 227.51 220.87 229.14
  A 2.19 2.19 0.0 0 1 218.33 226.87
  Q 218.70 219.22 218.66 211.51
  Q 218.51 183.78 217.55 158.77
  C 217.47 156.66 218.34 155.10 220.52 154.42
  Q 229.59 151.56 234.77 151.48
  C 244.43 151.34 251.44 155.87 252.44 165.78
  Q 253.25 173.74 248.76 180.32
  C 247.87 181.63 245.99 183.19 245.55 184.08
  Z
  M 230.41 180.82
  Q 238.42 179.80 240.60 173.19
  C 241.76 169.68 241.14 165.37 237.61 163.67
  C 235.49 162.65 232.88 163.08 230.73 163.73
  A 1.30 1.30 0.0 0 0 229.80 164.97
  L 229.65 180.15
  A 0.67 0.66 -3.3 0 0 230.41 180.82
  Z
  M 231.14 214.32
  Q 240.54 213.03 243.02 205.25
  C 244.34 201.12 243.56 196.06 239.40 194.11
  C 236.90 192.94 233.84 193.47 231.33 194.26
  A 1.53 1.53 0.0 0 0 230.25 195.72
  L 230.25 213.55
  A 0.79 0.78 -3.9 0 0 231.14 214.32
  Z"
/>
<path fill="#1e4337" d="
  M 203.54 159.06
  C 204.83 158.66 206.44 159.79 206.45 161.23
  C 206.50 168.14 206.37 175.51 206.55 181.60
  Q 207.06 198.03 206.83 207.75
  C 206.61 216.57 205.62 225.53 200.75 232.97
  C 197.42 238.05 191.34 241.55 185.30 242.08
  C 170.22 243.39 168.30 225.57 168.12 215.00
  Q 167.73 193.30 167.01 169.51
  C 166.89 165.56 168.72 164.76 172.45 164.80
  C 174.43 164.82 179.73 163.36 179.74 167.04
  Q 179.82 195.82 180.05 208.50
  C 180.13 212.95 180.22 218.40 181.50 223.02
  C 182.78 227.63 186.80 229.28 190.73 226.04
  C 194.08 223.27 194.79 215.35 194.81 211.00
  Q 194.91 190.66 193.79 167.50
  Q 193.76 166.86 193.95 163.57
  A 2.57 2.57 0.0 0 1 195.89 161.23
  Q 199.44 160.34 203.54 159.06
  Z"
/>
<path fill="#f6eedd" d="
  M 230.41 180.82
  A 0.67 0.66 -3.3 0 1 229.65 180.15
  L 229.80 164.97
  A 1.30 1.30 0.0 0 1 230.73 163.73
  C 232.88 163.08 235.49 162.65 237.61 163.67
  C 241.14 165.37 241.76 169.68 240.60 173.19
  Q 238.42 179.80 230.41 180.82
  Z"
/>
<path fill="#1e4337" d="
  M 140.15 238.30
  Q 140.61 238.95 141.45 238.89
  Q 150.62 238.21 159.36 234.99
  A 1.31 1.27 -44.2 0 1 160.29 234.99
  Q 161.84 235.58 161.80 237.52
  Q 161.66 244.65 161.46 245.70
  C 160.79 249.06 158.40 249.19 155.68 249.97
  Q 153.53 250.58 153.01 250.67
  Q 139.93 252.80 130.33 255.76
  A 1.98 1.97 -8.9 0 1 127.77 253.90
  Q 127.67 245.97 127.66 234.75
  Q 127.65 224.57 125.35 168.53
  C 125.19 164.60 133.18 163.88 135.78 163.71
  C 138.55 163.53 139.22 164.90 139.04 167.50
  Q 138.72 172.28 138.77 179.00
  C 138.90 194.63 139.63 208.42 139.69 223.17
  Q 139.73 233.79 140.06 237.96
  Q 140.08 238.20 140.15 238.30
  Z"
/>
<path fill="#1e4337" d="
  M 106.43 199.68
  A 0.99 0.98 -28.3 0 1 104.86 199.21
  C 103.77 195.62 103.69 194.17 101.14 192.09
  A 1.26 1.25 -27.8 0 0 100.22 191.81
  C 94.91 192.30 92.46 202.95 91.72 207.25
  Q 88.83 224.34 93.10 241.33
  C 94.06 245.15 97.99 251.88 102.94 248.19
  C 105.90 245.98 106.98 242.86 108.32 238.79
  C 108.95 236.88 109.95 235.37 112.10 236.63
  Q 116.18 239.01 117.68 240.05
  Q 119.26 241.16 118.74 243.21
  C 117.12 249.66 114.46 255.04 110.20 259.44
  C 105.13 264.69 97.16 265.54 90.76 261.41
  C 83.97 257.03 81.12 247.65 79.50 239.24
  Q 77.01 226.26 79.38 208.91
  Q 81.13 196.14 87.54 185.32
  C 93.23 175.71 108.19 166.92 114.64 181.95
  C 116.18 185.53 111.25 193.00 108.82 196.83
  Q 107.64 198.69 106.43 199.68
  Z"
/>
<path fill="#f6eedd" d="
  M 231.14 214.32
  A 0.79 0.78 -3.9 0 1 230.25 213.55
  L 230.25 195.72
  A 1.53 1.53 0.0 0 1 231.33 194.26
  C 233.84 193.47 236.90 192.94 239.40 194.11
  C 243.56 196.06 244.34 201.12 243.02 205.25
  Q 240.54 213.03 231.14 214.32
  Z"
/>
</svg>
